<?xml version="1.0" standalone="no"?>
<!DOCTYPE svg PUBLIC "-//W3C//DTD SVG 20010904//EN"
 "http://www.w3.org/TR/2001/REC-SVG-20010904/DTD/svg10.dtd">
<svg version="1.0" xmlns="http://www.w3.org/2000/svg"
 width="1767.000000pt" height="1693.000000pt" viewBox="0 0 1767.000000 1693.000000"
 preserveAspectRatio="xMidYMid meet">

<g transform="translate(0.000000,1693.000000) scale(0.100000,-0.100000)"
fill="#000000" stroke="none">
<path d="M8550 16923 c-300 -17 -621 -50 -820 -84 -628 -107 -999 -225 -1745
-554 -71 -32 -165 -72 -207 -91 -114 -49 -420 -205 -523 -267 -677 -405 -1061
-686 -1535 -1123 -1083 -997 -1871 -2276 -2279 -3699 -328 -1147 -394 -2380
-190 -3565 135 -784 383 -1542 732 -2235 68 -136 103 -201 251 -463 25 -45 46
-86 46 -90 0 -4 -127 -47 -283 -95 -321 -101 -509 -166 -519 -181 -13 -19 -9
-79 11 -146 10 -36 49 -163 86 -284 36 -120 64 -220 62 -223 -6 -6 -244 -108
-687 -295 -653 -276 -945 -400 -948 -403 -12 -11 161 -175 694 -659 337 -305
615 -559 618 -564 5 -9 -37 -492 -124 -1410 -30 -325 -37 -476 -22 -486 12 -7
86 14 207 57 102 36 901 314 1845 642 289 100 528 181 533 178 4 -2 7 -41 7
-86 0 -45 7 -112 14 -148 27 -124 122 -282 214 -352 51 -40 157 -92 228 -113
73 -21 249 -22 344 -1 48 11 67 12 72 3 9 -14 1914 -16 5646 -5 2650 8 2653 8
2730 29 105 29 246 99 310 155 135 120 184 224 186 392 1 102 1 102 38 152
l38 50 49 -15 c27 -8 69 -21 92 -30 24 -9 152 -53 284 -99 132 -46 377 -132
545 -190 168 -59 420 -146 560 -195 140 -48 426 -147 635 -220 484 -168 527
-181 593 -178 l52 3 -5 60 c-3 33 -10 103 -15 155 -6 52 -30 316 -55 585 -24
270 -56 615 -70 769 -14 153 -25 284 -23 290 2 10 413 389 758 701 226 204
471 429 514 473 l49 51 -59 26 c-32 15 -133 58 -224 97 -91 38 -298 126 -460
195 -162 69 -358 152 -435 185 -439 186 -615 264 -615 274 0 12 137 507 168
604 11 36 45 106 75 156 544 898 869 1727 1066 2719 144 728 183 1591 106
2335 -105 1004 -368 1908 -817 2804 l-109 219 29 31 c71 77 265 329 433 566
304 427 535 855 655 1215 18 55 44 132 58 171 50 138 146 529 146 592 0 22 7
59 15 82 8 23 15 57 15 74 0 18 7 58 15 90 17 63 53 512 56 691 3 143 -5 333
-14 342 -4 3 -11 2 -16 -3 -9 -9 -25 -196 -36 -434 -13 -265 -47 -547 -85
-705 -11 -44 -29 -126 -40 -183 -53 -264 -231 -800 -331 -992 -21 -41 -61
-121 -88 -178 -28 -57 -59 -115 -69 -130 -10 -15 -41 -67 -69 -117 -78 -139
-284 -446 -359 -534 -16 -20 -56 -74 -88 -119 -55 -80 -85 -119 -312 -401 -54
-68 -110 -138 -124 -156 -112 -145 -338 -418 -351 -423 -3 -2 -12 11 -18 28
-10 30 -6 37 101 188 61 86 133 189 160 227 27 39 83 117 124 175 41 58 107
152 145 210 39 58 79 114 89 125 17 19 273 402 358 535 101 159 283 548 366
785 50 140 113 385 152 585 24 120 85 693 82 775 l-1 40 -9 -45 c-5 -25 -19
-133 -32 -240 -29 -244 -43 -339 -61 -415 -8 -33 -35 -149 -60 -258 -65 -283
-206 -673 -314 -868 -190 -345 -259 -456 -499 -805 -53 -77 -211 -306 -351
-510 -242 -351 -368 -524 -383 -524 -3 0 -21 -18 -38 -40 -27 -34 -29 -41 -15
-46 9 -4 24 1 35 11 17 16 20 15 52 -7 18 -12 35 -24 37 -25 6 -4 -40 -61
-118 -147 -105 -115 -97 -125 35 -40 47 30 91 57 98 60 7 3 23 -19 39 -53 77
-169 103 -229 147 -338 290 -719 453 -1430 510 -2225 14 -194 14 -737 1 -930
-62 -868 -250 -1639 -588 -2415 -118 -270 -378 -763 -399 -757 -5 1 -17 25
-26 52 -57 168 -213 395 -353 513 -112 95 -273 190 -420 249 -296 119 -616 89
-869 -82 -205 -138 -382 -370 -462 -604 -30 -91 -44 -107 -44 -53 0 46 -43
214 -84 333 -47 135 -96 241 -143 309 -21 31 -43 65 -49 75 -22 39 -249 241
-315 280 -38 22 -69 45 -69 50 0 16 94 12 135 -5 53 -23 61 -11 70 97 4 50 11
98 15 107 5 9 16 48 26 86 14 56 18 126 20 357 l3 287 -22 7 c-12 4 -42 8 -67
10 -25 1 -126 7 -225 12 -164 9 -721 10 -754 1 -15 -5 -41 68 -41 117 0 16
-10 50 -21 74 -19 40 -20 45 -5 55 9 7 16 16 16 22 0 5 25 47 56 93 63 94 130
229 166 333 17 49 27 66 37 62 38 -15 321 -66 446 -81 192 -22 569 -15 770 16
245 37 587 121 895 220 192 61 522 263 566 346 16 29 23 34 44 30 21 -4 41 12
135 107 108 110 112 115 174 250 36 75 68 137 73 137 15 0 8 -45 -17 -105 -27
-66 -29 -75 -16 -75 37 0 113 127 124 205 7 57 87 190 133 224 42 30 89 76
114 108 54 71 106 189 120 273 4 25 12 56 18 70 16 36 33 356 21 388 -5 14 -9
44 -9 66 2 48 -26 291 -34 305 -4 5 -13 47 -21 93 -8 46 -21 100 -29 119 -8
20 -24 69 -35 110 -11 41 -25 88 -30 104 -83 232 -102 295 -105 338 -5 64 -23
149 -34 156 -5 4 -15 29 -22 56 -15 55 -85 225 -109 266 -60 98 -91 131 -91
96 0 -7 20 -58 44 -113 25 -56 52 -130 61 -165 9 -35 21 -71 26 -81 7 -12 5
-27 -5 -46 -15 -29 -12 -72 6 -72 5 0 6 -4 3 -10 -6 -10 30 -138 95 -339 39
-120 99 -361 107 -431 2 -19 11 -74 19 -122 20 -118 26 -194 25 -313 -2 -161
-22 -406 -37 -454 -8 -25 -14 -57 -14 -73 0 -15 -4 -28 -9 -28 -5 0 -23 -36
-41 -80 -18 -44 -36 -80 -40 -80 -4 0 -10 42 -13 93 -6 101 -48 256 -92 340
-14 27 -25 55 -25 62 0 17 -46 72 -54 64 -8 -7 11 -168 30 -254 17 -77 34
-335 24 -374 -5 -20 -10 -10 -28 50 -23 76 -55 139 -71 139 -16 0 -21 -31 -9
-53 7 -14 12 -77 12 -172 l1 -150 -56 -111 c-63 -125 -251 -412 -257 -394 -3
7 0 15 6 19 30 19 47 158 19 148 -6 -2 -42 -44 -79 -93 -75 -97 -95 -118 -178
-183 -288 -227 -752 -371 -1440 -448 -243 -27 -868 -26 -986 1 -45 10 -87 22
-94 26 -9 5 -8 25 4 81 8 41 20 115 26 164 17 133 17 133 47 139 37 8 292 35
418 45 98 7 105 9 225 71 69 34 145 77 170 94 25 17 119 63 210 102 188 81
292 134 415 210 168 104 346 229 414 290 l51 46 72 -12 c40 -6 89 -16 109 -21
49 -12 59 -11 59 5 0 20 -123 124 -153 130 -15 2 -31 7 -36 10 -43 27 -349 48
-390 27 -9 -4 -55 -16 -103 -26 -49 -10 -88 -20 -88 -24 1 -16 18 -29 47 -35
17 -4 41 -16 54 -27 15 -13 38 -19 73 -20 28 0 60 -4 71 -8 18 -7 17 -10 -15
-29 -19 -12 -42 -26 -50 -32 -37 -26 -205 -137 -234 -155 -17 -11 -47 -31 -64
-44 -47 -33 -132 -79 -332 -178 l-175 -86 -795 266 c-899 301 -955 319 -1028
318 -86 0 -497 -119 -1042 -300 -413 -138 -374 -131 -468 -75 -259 158 -640
316 -992 414 -63 17 -145 43 -183 57 -63 25 -66 27 -51 44 43 48 223 120 421
168 70 18 96 28 107 46 15 22 14 24 -12 29 -168 32 -361 -6 -514 -101 -101
-63 -163 -123 -204 -195 -42 -73 -37 -88 27 -88 109 0 325 -62 545 -155 124
-54 474 -229 689 -346 108 -59 162 -95 195 -130 41 -44 50 -49 77 -43 25 5 50
-3 117 -37 48 -24 85 -48 82 -54 -2 -6 -12 -110 -22 -232 l-18 -221 -75 -11
c-166 -25 -303 -33 -481 -27 -356 11 -676 83 -1059 238 -165 67 -220 95 -318
162 -75 52 -193 166 -193 186 0 5 -12 26 -26 47 -39 57 -71 134 -79 192 -4 32
-12 51 -20 51 -9 0 -15 -26 -20 -89 -8 -101 -2 -140 26 -172 10 -12 19 -32 19
-45 0 -12 19 -46 41 -76 141 -182 470 -402 714 -477 60 -19 473 -82 800 -122
55 -7 188 -12 295 -12 186 0 239 5 356 39 20 5 21 2 28 -148 10 -231 41 -329
141 -452 50 -62 55 -87 29 -162 -9 -26 -18 -88 -20 -137 -2 -50 -7 -94 -11
-98 -8 -7 -131 -31 -257 -50 -60 -9 -203 -47 -286 -75 -25 -9 -65 -19 -90 -24
-25 -5 -62 -15 -83 -22 l-39 -14 -1 -174 c-1 -177 17 -456 33 -520 9 -31 5
-43 -42 -125 -28 -49 -64 -128 -79 -175 -15 -47 -51 -152 -79 -234 -28 -82
-49 -156 -47 -165 4 -20 57 80 57 107 0 63 227 488 275 515 13 8 149 14 415
19 217 4 517 10 665 13 149 2 314 10 368 16 54 6 101 9 104 5 3 -3 -5 -23 -18
-43 -14 -21 -30 -50 -37 -64 -11 -21 -24 -27 -80 -37 -78 -13 -195 -59 -256
-100 -63 -43 -83 -45 -103 -14 -21 34 -63 85 -63 78 0 -3 14 -27 30 -53 17
-26 30 -50 30 -53 0 -3 -32 -32 -71 -65 -39 -33 -96 -95 -127 -139 -31 -43
-70 -97 -87 -120 -16 -22 -41 -77 -56 -121 -14 -44 -30 -80 -35 -80 -5 1 -94
5 -199 9 -104 5 -193 10 -197 13 -4 2 17 53 47 113 53 105 64 140 47 140 -21
0 -71 -71 -169 -238 -7 -11 -51 -11 -248 -1 -319 16 -1541 16 -1910 1 -315
-14 -913 -49 -957 -57 -16 -2 -28 -3 -28 -2 0 1 16 78 35 170 19 91 40 219 47
283 12 114 13 117 45 141 30 23 63 73 63 95 0 4 -23 -3 -50 -17 -37 -19 -51
-22 -54 -13 -2 7 -9 38 -15 69 -36 176 -201 351 -380 403 -77 22 -204 21 -282
-4 -79 -24 -175 -86 -228 -146 -47 -54 -151 -264 -211 -426 -24 -65 -46 -118
-50 -118 -5 0 -11 37 -15 83 -18 222 -90 432 -213 622 -59 92 -189 225 -277
283 -77 50 -222 117 -299 136 -54 14 -69 31 -37 41 37 11 71 46 71 72 0 20 -3
23 -13 15 -7 -6 -18 -7 -26 -2 -8 4 -20 6 -27 3 -13 -5 -41 22 -76 73 -27 39
-56 54 -103 54 -19 0 -35 2 -35 4 0 3 14 25 30 49 17 25 30 51 30 58 0 7 19
31 43 53 24 23 55 62 70 89 l28 47 -59 0 c-54 0 -60 2 -71 26 -21 46 -63 94
-102 116 -34 19 -37 24 -25 37 43 50 56 116 35 176 -10 27 -8 35 14 69 30 43
42 75 32 84 -4 4 -12 0 -19 -9 -9 -13 -76 -49 -91 -49 -2 0 -21 15 -44 34 -68
57 -115 69 -238 64 -102 -5 -107 -6 -129 -33 l-22 -27 -28 48 c-15 27 -77 123
-137 213 -126 190 -151 231 -137 231 6 0 10 -4 10 -10 0 -5 21 -23 48 -40 44
-28 53 -30 142 -29 52 1 109 4 125 8 17 4 64 0 105 -7 102 -19 536 -21 645 -4
207 34 523 130 623 188 41 24 59 28 132 29 101 1 181 26 284 88 52 31 84 43
130 48 187 22 354 72 527 159 113 57 139 74 222 143 32 27 60 48 62 45 2 -2 5
-150 7 -329 l3 -326 -40 -49 c-22 -27 -50 -60 -62 -74 -13 -14 -23 -34 -23
-46 0 -21 -163 -183 -246 -243 -211 -155 -429 -237 -754 -282 -220 -30 -1007
-12 -1094 26 -31 14 -15 -27 21 -51 42 -28 107 -37 170 -24 36 8 63 8 91 1
114 -31 696 -46 872 -22 266 36 493 115 663 231 120 82 182 135 248 212 34 40
65 74 68 76 3 1 1 -58 -5 -130 -12 -151 -9 -620 6 -778 5 -58 14 -179 20 -270
21 -324 97 -818 141 -914 21 -45 27 -5 12 77 -46 247 -86 653 -103 1047 -12
268 -17 646 -10 653 3 3 20 8 38 12 32 7 32 6 32 -32 0 -44 9 -83 19 -83 4 0
20 28 36 63 21 45 30 85 36 147 3 47 12 100 19 118 28 75 -15 171 -94 210 -24
12 -48 22 -55 22 -17 0 -13 14 9 40 28 33 50 113 50 184 0 34 -7 184 -15 335
-9 151 -12 277 -7 280 5 3 18 26 29 51 12 25 46 99 76 165 142 309 196 596
151 798 -70 311 -356 584 -709 677 -124 32 -298 46 -387 32 -140 -23 -173 -31
-232 -51 -79 -28 -86 -27 -86 10 0 58 -40 171 -76 213 -61 71 -142 123 -259
165 -202 73 -360 100 -575 100 -171 0 -253 -10 -365 -47 -111 -37 -137 -50
-250 -125 -110 -73 -207 -165 -287 -274 -33 -46 -64 -83 -69 -83 -5 0 -80 71
-167 158 -224 224 -475 451 -614 555 -21 15 -38 32 -38 37 0 40 282 619 375
770 12 19 24 42 27 51 7 19 172 284 248 399 97 147 282 400 360 494 10 11 39
48 66 81 156 196 557 616 754 790 305 270 588 486 907 693 62 40 117 71 121
68 5 -3 32 -79 61 -168 28 -90 63 -197 77 -238 14 -41 32 -100 39 -130 7 -30
21 -75 30 -100 9 -25 25 -74 35 -110 10 -36 32 -112 50 -170 18 -58 42 -141
54 -185 43 -156 202 -647 245 -755 59 -151 72 -183 95 -229 13 -25 26 -59 30
-75 4 -16 38 -83 75 -150 37 -66 84 -151 104 -187 63 -115 152 -240 258 -363
26 -29 66 -81 90 -115 24 -34 53 -74 64 -89 42 -56 303 -310 360 -350 33 -23
114 -68 180 -101 116 -56 119 -59 93 -69 -19 -8 -28 -19 -28 -33 0 -19 -4 -21
-32 -15 -43 9 -60 26 -26 26 26 0 45 24 28 35 -5 3 -75 11 -155 17 -158 12
-195 6 -195 -32 0 -25 32 -46 95 -60 28 -7 73 -18 101 -26 28 -8 72 -14 97
-14 26 0 47 -3 47 -6 0 -3 -18 -45 -41 -93 -22 -47 -54 -118 -69 -158 -16 -39
-38 -89 -50 -110 -11 -21 -20 -43 -20 -49 0 -12 -43 -116 -60 -146 -6 -10 -10
-26 -10 -36 0 -10 -4 -22 -9 -27 -4 -6 -27 -75 -50 -155 -23 -80 -46 -158 -52
-175 -14 -39 -31 -302 -33 -485 -1 -136 1 -152 32 -255 18 -60 40 -121 49
-135 41 -62 73 -135 82 -185 16 -87 101 -236 146 -257 35 -16 42 -3 18 30 -27
38 -62 145 -53 163 5 8 1 36 -10 67 -22 62 -30 302 -13 367 27 101 23 285 -6
285 -8 0 -70 -237 -72 -275 -4 -71 -48 213 -49 309 0 84 17 216 42 316 12 47
25 120 29 163 5 43 26 130 48 197 22 65 49 154 61 197 13 43 35 107 50 143 15
36 40 99 54 140 15 41 38 93 51 115 23 37 42 76 82 163 24 54 53 144 53 164 0
14 -5 18 -19 13 -15 -5 -29 12 -76 92 -31 54 -66 109 -76 123 -10 14 -32 48
-49 75 -17 28 -45 68 -61 90 -17 22 -52 74 -79 115 -27 41 -69 104 -94 140
-311 446 -352 509 -431 650 -102 181 -194 369 -267 545 -65 157 -138 365 -138
391 0 7 -9 22 -20 35 l-19 24 0 -25 c0 -14 4 -43 9 -65 17 -74 108 -353 135
-410 7 -16 35 -82 60 -145 64 -156 99 -223 233 -450 167 -284 231 -388 279
-455 23 -33 55 -79 70 -103 16 -24 54 -78 86 -120 32 -42 83 -115 114 -161 31
-46 83 -115 115 -154 32 -38 58 -73 58 -77 0 -4 29 -38 65 -75 36 -38 65 -70
65 -72 0 -13 -44 -103 -50 -103 -17 0 -122 70 -181 121 -35 30 -85 72 -111 92
-149 119 -259 230 -339 344 -80 113 -118 172 -313 485 -48 79 -101 161 -116
183 -26 39 -84 167 -157 345 -19 47 -41 99 -49 117 -8 17 -14 34 -14 37 0 3
-15 45 -34 94 -19 48 -57 161 -86 252 -28 91 -69 219 -90 285 -21 66 -67 212
-101 325 -34 113 -87 277 -117 365 -30 88 -74 223 -97 300 -23 77 -67 219 -98
315 -59 183 -136 452 -163 567 -15 66 -15 67 7 84 44 33 345 178 444 214 55
20 110 40 121 45 16 6 51 -5 150 -51 71 -32 141 -65 156 -73 14 -8 161 -83
325 -167 267 -136 420 -219 551 -298 24 -14 61 -35 82 -46 21 -11 96 -57 167
-103 70 -46 189 -123 264 -171 75 -48 159 -105 187 -127 27 -21 85 -64 127
-94 117 -83 234 -179 400 -330 147 -133 259 -225 370 -305 54 -39 117 -87 161
-125 22 -18 22 -18 28 19 3 20 6 57 6 83 0 26 4 49 9 52 19 12 87 -170 98
-262 6 -49 15 -39 -180 -203 -97 -81 -126 -119 -79 -102 15 6 163 112 257 184
22 17 77 38 152 58 65 18 159 43 208 57 420 118 666 171 847 183 70 5 133 13
139 17 15 9 293 22 694 32 213 6 302 5 335 -4 96 -25 417 -127 655 -208 226
-76 323 -110 540 -189 324 -119 515 -199 570 -241 16 -13 41 -27 55 -31 48
-15 237 -124 287 -165 19 -16 124 -60 142 -60 20 0 -40 58 -83 80 -16 8 -53
42 -82 75 -29 33 -76 78 -104 100 -44 34 -66 75 -42 75 5 0 51 44 103 97 184
189 224 231 249 259 40 44 289 283 351 335 30 25 99 83 154 129 55 46 123 105
150 130 115 108 170 152 523 418 31 23 82 62 112 85 57 45 143 105 420 292
208 141 242 164 310 207 30 19 100 63 155 98 193 123 332 206 485 294 85 49
196 113 245 142 218 127 519 275 900 442 50 21 105 48 124 60 33 20 33 20 11
32 -28 15 -76 7 -210 -35 -151 -48 -248 -89 -485 -207 -331 -165 -613 -325
-1010 -574 -115 -73 -241 -152 -279 -176 -38 -23 -108 -69 -155 -101 -47 -32
-135 -91 -196 -132 -160 -107 -574 -411 -718 -526 l-38 -31 -82 69 c-455 383
-930 691 -1527 988 -836 418 -1725 711 -2605 860 -475 80 -679 95 -1235 93
-245 -1 -470 -3 -500 -5z m1095 -213 c998 -66 1875 -285 2785 -696 230 -104
669 -340 855 -459 399 -256 670 -455 970 -710 l74 -62 -112 -94 c-62 -52 -150
-131 -197 -175 l-85 -82 -120 100 c-1090 906 -2451 1479 -3865 1627 -556 59
-1164 53 -1700 -15 -451 -57 -925 -164 -1353 -304 l-217 -72 -138 72 c-75 40
-157 80 -182 90 -25 10 -105 47 -178 82 l-133 65 38 15 c688 288 1309 461
1998 557 167 24 412 49 585 60 181 12 800 12 975 1z m-170 -660 c916 -42 1756
-238 2594 -605 128 -56 474 -229 596 -298 140 -78 416 -252 560 -351 253 -174
603 -450 597 -470 -2 -6 -49 -56 -105 -111 -56 -55 -134 -135 -172 -179 -39
-43 -86 -95 -106 -115 -20 -20 -73 -78 -119 -128 -45 -51 -87 -93 -92 -93 -6
0 -22 9 -37 19 -14 11 -69 36 -121 56 -52 21 -157 64 -232 96 -75 33 -144 59
-152 59 -9 0 -41 12 -73 26 -101 45 -828 278 -988 316 -69 16 -117 29 -200 53
-176 52 -300 66 -540 61 -300 -7 -416 -13 -449 -26 -15 -5 -53 -10 -84 -10
-97 -1 -359 -44 -482 -80 -36 -10 -92 -24 -125 -29 -73 -14 -147 -35 -375
-109 -96 -31 -181 -57 -188 -58 -7 -1 -47 -19 -89 -38 -41 -20 -77 -36 -79
-36 -2 0 -1 26 2 58 5 47 0 75 -25 157 -36 112 -74 194 -110 233 l-24 26 -17
-21 c-14 -18 -16 -39 -13 -130 l4 -108 -37 40 c-115 125 -237 245 -304 300
-25 20 -72 61 -105 90 -129 117 -264 230 -355 299 -133 101 -382 274 -465 325
-38 23 -110 67 -160 98 -49 31 -124 75 -165 98 -41 23 -117 65 -168 93 -50 29
-96 52 -100 52 -4 0 -31 15 -60 33 l-52 34 128 41 c70 22 179 55 242 72 63 17
138 38 165 46 98 28 363 84 535 113 542 93 1028 124 1545 101z m-4199 -478 c3
-23 10 -45 15 -48 5 -3 9 -22 9 -42 0 -20 7 -59 16 -87 29 -92 44 -155 50
-208 l6 -52 -49 -28 c-26 -15 -94 -58 -150 -95 -979 -647 -1772 -1488 -2342
-2487 -109 -190 -258 -483 -331 -650 -29 -66 -56 -124 -61 -129 -6 -6 -27 3
-56 23 -45 32 -50 33 -113 28 -139 -12 -189 -48 -176 -125 7 -46 50 -136 86
-182 16 -21 30 -42 30 -48 0 -5 20 -19 45 -31 25 -12 45 -23 45 -26 0 -3 -25
-78 -55 -167 -350 -1046 -458 -2181 -310 -3288 79 -592 224 -1153 442 -1705
75 -191 199 -468 258 -580 l32 -60 -24 -70 c-61 -177 -115 -381 -176 -670 -3
-13 -5 -9 -6 11 0 16 -14 50 -29 75 -114 180 -345 636 -457 899 -188 441 -344
928 -439 1365 -15 66 -31 138 -36 160 -14 61 -47 254 -70 410 -97 656 -106
1426 -24 2095 124 1018 457 2023 969 2920 93 163 119 205 274 440 183 280 492
682 676 880 23 25 96 104 162 175 139 150 250 257 473 461 315 286 764 618
1160 858 l125 76 12 -27 c6 -16 15 -47 19 -71z m10907 -3207 c82 -165 95 -192
152 -320 338 -763 548 -1592 632 -2500 25 -273 25 -1009 0 -1285 -96 -1045
-354 -1965 -798 -2850 -164 -328 -430 -780 -458 -780 -4 0 -78 16 -164 35 -86
19 -158 35 -160 35 -3 0 -7 80 -9 177 -4 156 -3 181 12 203 43 63 225 392 302
545 433 861 675 1735 760 2745 20 235 17 875 -6 1125 -30 345 -91 753 -146
980 -5 22 -21 90 -35 150 -98 413 -259 883 -435 1270 -15 33 -37 83 -50 110
-12 28 -29 62 -36 77 -13 25 -11 28 28 70 38 40 275 326 307 369 8 11 15 18
17 16 2 -1 41 -79 87 -172z m-13811 -622 c19 -21 51 -51 72 -67 145 -109 315
-264 536 -486 140 -142 278 -285 305 -319 28 -33 79 -92 115 -130 36 -37 74
-81 85 -97 35 -51 194 -269 206 -282 7 -9 15 -10 23 -3 8 6 28 5 61 -6 28 -8
56 -17 63 -19 32 -9 -4 -24 -60 -24 -40 0 -67 -5 -78 -15 -9 -8 -45 -22 -81
-32 l-65 -16 -27 27 c-15 15 -27 31 -27 36 0 4 -4 10 -9 12 -4 2 -29 35 -53
73 -52 80 -226 265 -249 265 -15 0 -45 27 -254 228 -44 43 -118 111 -165 152
-47 41 -87 78 -90 81 -3 3 -43 36 -90 74 -47 38 -105 85 -130 106 -52 43 -163
118 -202 138 -33 17 -128 200 -128 246 0 44 11 54 76 75 95 30 126 26 166 -17z
m2258 -419 c155 -28 249 -58 358 -113 96 -48 152 -107 197 -205 53 -117 55
-112 -53 -167 -160 -81 -295 -182 -418 -312 -90 -95 -154 -197 -154 -246 0
-32 -20 -34 -81 -12 -113 42 -351 75 -461 65 -55 -5 -74 -3 -110 14 -25 12
-76 24 -120 28 l-77 7 -21 51 c-37 87 -99 185 -187 293 l-84 104 48 66 c181
253 434 415 706 453 97 13 308 1 457 -26z m-2173 -66 c147 -125 271 -239 437
-403 194 -194 316 -324 316 -341 0 -8 -6 -30 -14 -48 -8 -19 -22 -98 -32 -175
-14 -121 -15 -147 -4 -182 9 -26 18 -38 27 -35 17 7 17 -20 0 -31 -22 -14
-113 -126 -139 -173 -14 -25 -40 -87 -57 -138 -78 -234 -49 -624 61 -820 17
-29 67 -90 112 -136 l81 -82 0 -65 c0 -56 4 -71 30 -109 17 -23 44 -67 60 -96
55 -97 106 -179 178 -283 27 -39 46 -75 42 -81 -4 -6 -18 -15 -31 -20 -27 -11
-84 -85 -84 -111 0 -10 -4 -20 -9 -23 -14 -9 -24 -100 -16 -147 13 -79 113
-144 230 -151 30 -2 39 -7 36 -18 -2 -8 -6 -47 -9 -87 -5 -86 18 -142 84 -203
40 -36 122 -70 173 -70 27 0 26 -9 -6 -67 -16 -29 -27 -64 -27 -90 l-1 -43
-55 -15 c-300 -83 -546 -267 -732 -550 -144 -220 -220 -361 -356 -658 l-17
-38 -57 123 c-130 284 -204 469 -293 735 -194 578 -311 1175 -355 1803 -14
200 -14 741 0 940 41 585 141 1127 301 1640 38 121 90 270 95 270 2 0 16 -10
31 -22z m3374 -342 c106 -7 198 -43 365 -141 133 -78 168 -103 191 -134 15
-20 38 -47 51 -61 13 -14 38 -45 55 -70 17 -25 37 -51 44 -58 7 -7 13 -20 13
-27 0 -8 9 -30 20 -49 34 -61 72 -189 72 -241 0 -64 -44 -275 -78 -380 -35
-105 -59 -162 -113 -265 -24 -47 -51 -98 -59 -115 -9 -16 -18 -32 -22 -35 -3
-3 -27 -32 -52 -65 -43 -57 -87 -100 -155 -151 -67 -51 -323 -162 -438 -190
-33 -8 -76 -19 -95 -25 -19 -5 -102 -14 -185 -20 -82 -6 -159 -15 -170 -19
-67 -27 -108 -40 -112 -36 -10 9 9 26 28 26 11 0 18 4 14 9 -3 5 6 36 20 68
29 63 55 230 55 344 0 78 -30 233 -59 305 -56 139 -103 210 -224 342 -39 43
-85 95 -100 115 -40 53 -171 138 -279 181 -22 9 -38 22 -38 31 0 46 80 154
196 265 121 115 352 267 433 285 17 4 37 12 44 19 18 18 169 67 267 86 82 17
124 17 311 6z m-2521 -466 c19 -17 42 -30 50 -30 22 0 76 -68 96 -122 30 -82
31 -80 -44 -115 -37 -17 -95 -50 -130 -73 -35 -22 -67 -38 -73 -35 -25 16 12
354 43 393 14 17 18 15 58 -18z m2098 -1616 c12 -4 22 -10 22 -14 0 -14 -74
-22 -100 -10 -21 8 -17 9 20 4 42 -6 44 -5 25 10 -22 17 -9 21 33 10z m-263
-44 c-3 -5 -10 -10 -16 -10 -5 0 -9 5 -9 10 0 6 7 10 16 10 8 0 12 -4 9 -10z
m185 1 c0 -11 -25 -21 -50 -21 -10 0 -40 -11 -67 -24 -58 -30 -125 -45 -105
-25 17 18 15 29 -5 29 -41 0 3 14 52 16 31 2 65 10 78 19 23 16 97 21 97 6z
m-2002 -145 c15 -8 64 -26 109 -41 44 -14 89 -35 98 -45 10 -11 24 -20 32 -20
8 0 11 -4 8 -10 -7 -11 -66 -13 -114 -4 -29 6 -30 8 -14 20 10 7 16 14 13 14
-3 0 -23 3 -45 6 -49 6 -106 23 -122 37 -16 12 -17 57 -3 57 6 0 23 -6 38 -14z
m3068 -282 c34 -23 54 -65 54 -111 l-1 -38 -18 23 c-11 12 -23 22 -27 22 -4 0
-4 -36 0 -80 6 -69 4 -85 -14 -120 -27 -53 -52 -54 -45 -2 7 49 14 171 14 255
1 37 3 67 6 67 3 0 17 -7 31 -16z m-2610 -285 c72 -10 164 -45 179 -68 3 -6
-9 -18 -26 -27 -61 -31 -169 -116 -169 -132 0 -32 164 -5 236 39 34 21 44 17
44 -18 0 -31 -68 -113 -93 -113 -11 0 -30 -11 -42 -24 -32 -35 -114 -56 -215
-56 -115 0 -185 21 -210 63 -26 42 -26 121 0 180 22 51 96 127 122 127 10 0
23 9 30 20 15 23 35 24 144 9z m266 -387 c35 -23 87 -91 88 -114 0 -10 -15
-21 -43 -31 -55 -18 -126 -63 -134 -83 -9 -25 10 -35 86 -46 40 -6 71 -15 71
-22 0 -21 -37 -68 -69 -87 -55 -33 -188 -22 -252 22 -14 10 -38 36 -53 57 -24
35 -27 49 -27 117 0 85 10 105 50 105 39 0 161 43 207 73 47 31 43 31 76 9z
m7522 -224 c19 -65 41 -98 67 -98 28 0 23 -16 -8 -28 -30 -12 -413 -29 -413
-18 0 3 33 21 73 40 81 37 172 93 213 131 15 14 33 25 40 25 7 0 19 -24 28
-52z m-1354 -93 c126 -34 317 -72 410 -81 68 -7 72 -8 40 -16 -19 -4 -60 -7
-90 -6 -62 1 -349 -32 -547 -63 -73 -11 -137 -18 -142 -14 -7 3 -7 14 -1 30 5
13 14 63 21 111 6 48 17 102 25 120 l14 32 87 -43 c49 -24 131 -55 183 -70z
m-6012 -161 c17 -21 32 -41 32 -45 0 -4 -31 -10 -70 -14 -48 -5 -70 -11 -70
-20 0 -8 5 -17 10 -20 6 -4 8 -15 5 -26 -4 -12 -1 -19 7 -20 7 -1 -25 -7 -72
-14 -50 -8 -89 -9 -95 -4 -15 14 -7 94 12 135 14 29 28 40 68 54 77 28 132 19
173 -26z m157 -319 c304 -100 502 -303 613 -630 59 -171 91 -460 99 -900 l6
-290 49 190 c147 574 321 1024 432 1122 148 130 353 132 503 3 107 -93 153
-202 153 -364 0 -149 -26 -287 -155 -826 -110 -457 -207 -891 -202 -897 2 -2
46 49 96 112 183 229 355 390 481 449 131 61 307 44 430 -43 119 -84 178 -173
207 -314 l17 -85 67 63 c70 66 155 128 224 163 171 87 473 77 697 -22 12 -6
21 0 32 21 22 43 94 111 151 141 46 25 58 27 165 26 123 -1 187 -17 276 -69
50 -29 132 -118 140 -151 8 -31 14 -30 50 7 97 103 309 230 439 264 289 75
532 17 727 -175 l87 -85 32 90 c89 252 184 508 223 603 185 448 413 886 576
1107 87 118 123 153 190 184 46 22 70 26 145 26 82 0 97 -3 157 -33 79 -39
165 -126 207 -210 101 -203 67 -352 -247 -1067 -112 -256 -153 -352 -253 -594
-60 -145 -108 -265 -106 -267 1 -2 54 40 117 92 220 183 421 301 560 326 133
25 293 -34 399 -147 115 -123 156 -235 149 -404 -3 -79 -1 -88 12 -77 34 30
87 48 156 53 41 3 74 7 74 9 0 2 -13 26 -30 52 -16 27 -37 82 -46 122 -30 133
11 296 109 432 86 120 143 160 243 173 99 14 249 -33 354 -110 26 -19 50 -35
54 -35 3 0 6 20 6 44 0 65 36 239 69 339 121 356 372 614 676 693 105 27 295
25 400 -4 184 -52 445 -209 567 -340 300 -325 383 -760 247 -1296 -40 -158
-115 -256 -221 -292 -71 -23 -156 -15 -216 23 -56 34 -117 118 -137 187 -21
71 -19 240 5 381 34 201 24 330 -33 428 -32 55 -48 54 -110 -7 -84 -81 -151
-253 -203 -516 -37 -186 -37 -307 -1 -455 47 -187 49 -195 58 -195 5 0 51 7
101 16 159 28 261 6 347 -72 72 -64 86 -102 86 -229 0 -101 -2 -115 -29 -174
-21 -44 -42 -73 -70 -92 -41 -31 -179 -79 -223 -79 -30 0 -30 8 8 -195 19
-100 22 -155 22 -330 0 -188 -2 -222 -25 -330 -63 -294 -165 -447 -360 -543
-132 -65 -189 -77 -368 -76 -167 0 -213 8 -365 65 -260 98 -492 290 -626 519
l-44 75 -25 -24 c-54 -52 -161 -77 -254 -60 -168 30 -382 167 -467 298 l-15
24 -26 -44 c-46 -79 -125 -119 -232 -119 -131 0 -239 46 -349 149 -109 103
-178 244 -192 396 -12 127 23 404 85 664 17 68 30 128 30 134 0 16 -79 -63
-164 -163 -82 -96 -165 -209 -283 -385 -121 -181 -143 -225 -147 -287 -5 -83
-24 -136 -63 -179 -141 -156 -434 -110 -640 100 -30 29 -55 52 -56 50 -2 -2
-20 -27 -41 -56 -20 -29 -66 -79 -102 -112 -135 -123 -305 -174 -508 -151 -60
6 -141 21 -180 32 -195 53 -373 186 -483 358 -21 33 -41 60 -45 60 -5 0 -8
-56 -8 -124 0 -258 -66 -342 -265 -340 -100 1 -176 24 -257 75 -109 71 -150
119 -182 216 l-17 52 -62 -46 c-128 -94 -222 -127 -362 -127 -157 0 -252 31
-367 120 -31 24 -59 44 -62 44 -3 0 4 -24 15 -52 31 -77 23 -179 -17 -239 -68
-101 -170 -145 -318 -137 -153 9 -282 77 -384 204 -75 94 -111 193 -132 364
-11 92 -12 406 -1 563 7 114 12 117 -90 -55 -99 -165 -209 -398 -311 -653 -31
-77 -39 -111 -37 -150 7 -144 -15 -220 -79 -277 -67 -58 -135 -82 -249 -86
-110 -5 -196 14 -293 63 -68 34 -154 108 -186 160 -16 25 -31 45 -34 45 -3 0
-20 -30 -38 -67 -80 -164 -280 -391 -428 -485 -245 -156 -408 -212 -655 -224
-342 -18 -624 85 -852 310 -163 161 -268 354 -352 648 -81 286 -107 497 -107
878 0 365 26 638 93 974 104 525 266 978 487 1361 160 278 277 427 421 536
126 94 311 174 461 199 41 6 82 13 90 15 8 2 65 2 125 0 84 -3 129 -10 190
-30z m6546 -362 c-11 -16 -30 -39 -41 -53 l-21 -25 7 40 c7 43 26 65 57 65 18
0 17 -1 -2 -27z m1448 -177 c12 -12 38 -28 59 -34 41 -13 45 -16 202 -162 62
-58 118 -108 125 -113 16 -9 141 -166 177 -223 44 -68 91 -176 93 -216 2 -20
14 -76 28 -125 23 -79 47 -196 60 -294 l5 -36 -60 18 c-102 32 -187 41 -259
28 -86 -15 -71 -16 -279 14 -287 41 -558 76 -637 83 l-73 7 0 41 c0 23 -19 98
-42 169 l-42 127 18 48 c124 323 143 447 101 647 l-7 30 119 -3 c93 -2 354 9
384 17 3 0 15 -10 28 -23z m-1827 -458 c-84 -168 -100 -193 -119 -190 -28 4
-31 -2 -43 -89 -6 -41 -18 -93 -28 -116 -16 -41 -19 -43 -57 -42 -68 0 -256
16 -261 22 -12 12 25 99 83 197 51 84 84 125 166 203 68 65 120 106 157 123
30 14 72 34 93 46 35 18 79 35 99 37 5 1 -36 -86 -90 -191z m1159 -488 c6 -39
7 -76 2 -80 -4 -4 -28 -5 -53 -1 -52 8 -52 6 -8 109 36 83 42 80 59 -28z
m-2966 -70 c237 -5 525 -14 640 -20 226 -11 879 -51 882 -54 2 -2 -146 -409
-152 -414 -3 -3 -31 13 -62 35 -126 88 -283 135 -458 135 -229 1 -443 -70
-627 -209 -51 -38 -88 -48 -88 -24 0 12 -100 78 -151 100 -93 41 -216 64 -321
59 -87 -4 -106 -9 -171 -41 -41 -20 -96 -57 -123 -82 l-49 -46 -50 16 c-70 23
-226 45 -315 45 -86 0 -203 -20 -286 -50 -59 -20 -181 -88 -208 -116 -14 -14
-17 -13 -28 13 -64 148 -253 295 -426 332 -123 26 -273 4 -380 -55 -62 -34
-164 -110 -220 -164 -13 -12 -26 -20 -28 -17 -3 3 7 54 21 113 75 317 87 364
94 368 12 8 377 35 696 51 581 31 1189 39 1810 25z m3175 -240 c413 -51 578
-74 586 -82 3 -4 -5 -22 -18 -40 -45 -61 -82 -132 -108 -211 l-27 -79 -21 33
c-40 63 -151 164 -222 203 -204 110 -387 98 -633 -41 -44 -25 -80 -43 -82 -41
-2 2 27 71 64 155 l66 152 35 -4 c19 -3 181 -23 360 -45z m2620 -211 c0 -5 -7
-9 -15 -9 -9 0 -12 6 -9 15 6 15 24 11 24 -6z m-37 -258 c-4 -31 -8 -121 -8
-201 0 -160 11 -208 66 -295 16 -26 28 -49 26 -51 -2 -2 -36 -5 -76 -6 l-73
-3 -20 70 c-30 106 -28 256 5 419 15 71 27 130 27 131 0 1 14 0 31 -3 l30 -4
-8 -57z m-12067 -83 c-49 -282 -63 -866 -27 -1174 33 -279 113 -567 221 -789
174 -359 490 -613 850 -682 49 -10 90 -20 90 -23 0 -3 -82 -23 -182 -44 -101
-22 -332 -76 -515 -121 l-331 -81 -22 70 c-13 39 -28 89 -35 111 -7 22 -29 92
-49 155 -71 232 -218 709 -257 835 -23 72 -52 166 -66 210 -14 44 -31 100 -38
125 -15 52 -129 421 -173 560 -96 302 -203 652 -200 655 4 4 321 107 458 149
300 92 285 90 276 44z m13117 -77 c82 -17 153 -31 159 -31 11 0 5 -36 -27
-140 -13 -41 -48 -165 -78 -275 -31 -110 -126 -454 -212 -765 -251 -907 -487
-1753 -491 -1758 -1 -2 -60 12 -131 31 -117 32 -631 160 -678 169 -13 3 0 10
37 21 32 10 99 39 150 65 260 131 400 401 439 840 12 135 2 351 -22 476 -15
79 -14 81 44 99 73 23 155 83 194 140 55 83 78 167 78 292 0 120 -16 184 -61
251 -14 20 -24 38 -22 39 2 2 32 10 68 19 100 26 174 77 246 172 32 42 76 165
105 292 18 82 25 101 38 98 9 -3 83 -19 164 -35z m232 -806 c28 -14 55 -25 60
-25 6 0 28 -9 50 -20 22 -11 43 -19 47 -20 4 0 36 -13 70 -29 35 -15 74 -32
87 -36 14 -4 45 -18 69 -31 25 -13 52 -24 61 -24 22 -1 66 -26 55 -32 -5 -3
-22 -6 -39 -6 -16 0 -41 -5 -55 -11 -22 -10 -21 -10 10 -5 44 9 50 9 80 0 17
-5 21 -4 11 2 -11 8 -10 11 5 14 21 4 84 -22 84 -34 0 -4 7 -8 15 -8 9 0 64
-20 123 -44 59 -24 122 -50 141 -57 l35 -13 -30 -13 c-28 -13 -28 -14 -2 -8
14 2 34 8 44 12 13 5 15 3 9 -7 -5 -8 -4 -11 3 -7 9 6 116 -35 164 -63 10 -5
23 -10 29 -10 6 0 44 -16 85 -35 40 -19 77 -35 80 -35 4 0 38 -14 76 -32 l69
-31 -26 -24 c-14 -13 -30 -21 -37 -17 -6 4 -8 3 -5 -3 8 -13 -142 -155 -154
-147 -5 3 -8 1 -7 -4 4 -12 -141 -146 -149 -138 -4 3 -4 7 -2 9 35 25 68 57
59 57 -20 0 -65 -50 -65 -72 0 -12 -6 -23 -14 -26 -9 -3 -11 0 -6 8 5 9 4 11
-4 6 -6 -4 -9 -12 -6 -17 7 -11 -64 -75 -82 -73 -7 1 -10 -2 -7 -7 5 -9 -34
-48 -49 -49 -4 0 -12 10 -17 23 -5 13 -9 16 -9 7 -1 -9 5 -22 12 -29 10 -10 5
-18 -23 -43 -19 -17 -65 -58 -101 -92 -135 -125 -159 -145 -164 -135 -4 5 -11
9 -17 9 -6 0 -6 -6 2 -15 7 -9 10 -18 6 -22 -3 -4 -13 2 -22 13 -15 18 -15 18
-5 -3 12 -24 24 -12 -164 -179 -60 -54 -113 -102 -118 -108 -4 -6 -5 -39 -1
-72 4 -40 2 -69 -5 -80 -10 -16 -11 -12 -9 24 2 23 0 42 -4 42 -5 0 -8 10 -9
23 -1 16 -3 14 -10 -12 -6 -18 -8 -43 -6 -55 3 -14 5 -10 7 14 3 34 3 33 9
-10 5 -36 10 -44 24 -42 15 3 17 -6 18 -70 1 -78 1 -81 18 -203 6 -44 12 -126
13 -181 2 -56 6 -97 10 -90 4 6 9 -23 10 -64 1 -41 3 -93 5 -115 7 -84 7 -141
-1 -160 l-9 -20 16 20 c15 19 16 16 18 -50 4 -110 6 -135 18 -220 6 -44 12
-127 13 -185 0 -58 4 -96 8 -85 5 13 9 -4 12 -50 3 -38 3 -72 2 -74 -3 -4
-152 45 -378 122 -54 19 -92 37 -85 40 8 3 4 6 -11 8 -54 5 -105 18 -138 35
-15 8 -35 14 -44 14 -9 0 -19 4 -22 9 -3 5 -22 12 -41 15 -20 4 -33 11 -30 16
3 6 0 7 -8 4 -7 -2 -27 1 -43 7 -16 7 -36 14 -44 15 -8 2 -37 12 -64 23 -44
16 -47 19 -27 26 12 4 21 9 18 11 -2 2 -17 -1 -33 -6 -24 -8 -39 -7 -70 6 -21
10 -114 43 -207 74 -92 31 -164 60 -160 65 5 4 2 5 -4 1 -7 -4 -41 4 -75 17
-35 13 -117 42 -183 65 -209 70 -329 112 -350 122 -11 5 -42 16 -70 24 -120
36 -247 84 -234 89 9 4 7 6 -6 7 -66 7 -81 11 -91 25 -7 9 -14 12 -16 8 -3 -4
-3 -2 -2 5 20 79 42 161 76 285 46 166 39 160 135 128 32 -11 77 -23 100 -26
24 -4 45 -11 49 -16 3 -5 14 -9 26 -9 28 0 159 -30 180 -41 10 -5 30 -9 45 -9
16 0 41 -7 57 -15 15 -8 31 -13 35 -11 10 7 163 -39 156 -46 -4 -3 -1 -9 6
-14 8 -5 10 -3 4 6 -6 10 -2 12 16 7 13 -4 34 -7 47 -7 13 0 21 -3 19 -7 -3
-5 5 -9 16 -9 21 -1 91 -18 202 -49 109 -30 99 -34 119 53 25 109 84 313 114
392 3 8 6 30 8 49 2 19 7 37 12 40 5 3 12 24 16 46 7 39 38 161 57 221 5 17 9
38 9 48 0 9 4 15 9 12 5 -3 11 16 15 43 9 69 44 174 64 190 16 13 16 13 0 8
-13 -5 -15 -2 -11 11 3 9 10 23 16 29 5 7 7 20 3 28 -3 9 -2 13 3 10 11 -6 26
33 17 42 -3 4 -6 -2 -6 -12 0 -10 -2 -16 -5 -13 -9 9 6 58 16 52 5 -3 9 6 9
19 0 13 9 57 20 98 11 41 33 124 49 184 16 61 34 124 42 140 7 17 13 35 14 40
4 29 20 92 50 195 18 63 39 135 46 160 l13 45 10 -47 c5 -27 14 -48 19 -48 5
0 6 10 3 23 -4 12 -9 36 -11 52 -4 24 -4 26 4 10 11 -22 15 -6 5 19 -5 12 -10
14 -19 6 -9 -8 -5 18 11 77 33 121 54 183 62 183 4 0 30 -12 57 -25z m-14021
-182 c25 -82 67 -213 93 -293 25 -80 47 -152 48 -160 1 -8 5 -22 8 -30 7 -16
28 -86 77 -250 17 -58 35 -114 40 -125 5 -11 25 -74 45 -140 20 -66 58 -190
85 -275 88 -283 119 -385 131 -430 6 -25 15 -54 20 -65 7 -18 24 -70 82 -260
11 -38 19 -50 33 -49 11 1 120 27 244 58 393 100 714 177 865 206 22 5 56 11
76 15 l35 7 57 -209 c31 -114 67 -247 80 -294 l25 -87 -102 -33 c-55 -19 -103
-34 -106 -35 -3 0 -18 -6 -34 -13 -16 -6 -36 -9 -43 -7 -8 3 -12 2 -8 -3 3 -5
-32 -22 -77 -37 -46 -15 -152 -51 -237 -80 -85 -29 -160 -50 -165 -47 -6 4 -7
2 -3 -2 9 -11 -242 -97 -256 -88 -6 3 -8 2 -4 -3 3 -5 -70 -35 -161 -66 -228
-78 -603 -208 -739 -256 -62 -22 -113 -38 -113 -35 0 3 -6 1 -12 -4 -7 -6 -42
-20 -78 -33 -36 -12 -114 -40 -175 -60 -60 -21 -111 -37 -112 -36 -3 2 21 263
82 916 8 85 20 209 26 275 5 66 19 210 30 320 l19 200 -47 44 c-27 24 -93 85
-148 135 -55 50 -125 114 -155 142 -30 27 -79 72 -109 100 -30 27 -62 56 -71
64 -19 18 -209 190 -226 205 -6 6 -38 35 -70 65 -33 30 -99 91 -149 135 -49
44 -116 105 -149 136 l-60 57 69 32 c39 18 97 42 130 55 80 30 242 99 309 131
16 7 32 11 37 8 5 -3 9 -1 9 4 0 5 15 15 33 22 38 14 54 21 127 53 30 13 133
57 229 96 96 40 197 83 225 96 80 36 170 73 182 74 6 0 32 -65 58 -146z m9357
-190 c-12 -154 -2 -279 33 -381 79 -236 266 -415 494 -473 128 -33 249 -20
352 38 l46 26 75 -58 c193 -150 419 -215 589 -171 52 13 55 13 68 -6 80 -114
190 -225 323 -327 35 -27 39 -32 19 -28 -94 21 -601 113 -840 152 -2215 363
-4374 420 -6535 170 -121 -14 -284 -34 -362 -45 -79 -11 -209 -29 -291 -41
-81 -11 -254 -38 -384 -60 -131 -21 -245 -39 -255 -39 -10 0 6 14 35 30 153
84 353 274 450 427 15 24 30 43 34 43 4 0 31 -18 60 -40 58 -43 166 -90 268
-116 87 -22 251 -15 332 14 126 45 226 138 267 247 16 43 21 79 21 156 0 108
8 135 96 327 19 41 34 77 34 80 1 4 9 25 19 47 l19 39 6 -44 c3 -25 8 -76 11
-114 17 -201 85 -355 214 -484 80 -80 191 -143 307 -172 242 -62 484 35 571
228 14 31 27 58 27 59 1 1 35 -7 76 -18 96 -25 258 -27 355 -5 39 9 100 31
137 49 l67 33 32 -42 c55 -74 214 -176 319 -204 190 -52 387 -14 465 87 18 24
43 68 55 97 l23 53 76 -54 c175 -126 334 -180 561 -190 106 -4 154 -2 220 11
120 24 250 90 339 172 38 35 74 64 79 64 6 0 24 -11 40 -25 44 -37 142 -90
213 -115 77 -27 222 -37 298 -21 177 38 290 163 310 345 9 79 20 102 114 236
21 30 57 83 79 118 23 34 43 60 45 58 3 -2 0 -62 -6 -133z m-2121 -1103 c570
-18 1059 -48 1570 -96 146 -14 296 -28 333 -31 113 -10 97 -24 -78 -67 -395
-97 -806 -160 -1100 -170 -88 -3 -205 -10 -260 -17 -56 -6 -127 -8 -160 -4
-33 5 -197 9 -365 11 -565 7 -631 10 -855 43 -333 48 -652 116 -925 196 -214
62 -292 87 -288 90 6 7 611 37 878 44 415 12 899 12 1250 1z m-2628 -99 c13
-6 169 -63 348 -127 179 -64 338 -122 353 -129 24 -10 -10 -13 -198 -18 -124
-3 -232 -10 -238 -14 -12 -9 -387 -2 -647 13 l-125 6 -183 91 c-101 49 -179
93 -175 97 8 7 102 18 528 65 238 26 304 29 337 16z m-1124 -193 c61 -34 109
-65 107 -68 -2 -3 -38 -7 -81 -9 -42 -1 -99 -6 -128 -12 -35 -6 -82 -6 -150 2
-56 6 -164 9 -250 6 -225 -7 -355 -48 -531 -167 -71 -48 -219 -195 -252 -250
-9 -17 -20 -30 -24 -30 -6 0 -22 54 -89 302 l-18 66 236 46 c390 75 970 173
1038 175 22 1 68 -19 142 -61z m6787 12 c143 -22 294 -46 335 -53 l75 -13
-215 -7 c-118 -4 -235 -11 -260 -16 -28 -6 -131 -6 -274 1 -127 5 -238 7 -249
4 -39 -10 -6 7 55 29 35 12 99 40 143 62 51 26 89 40 105 37 14 -2 142 -22
285 -44z m442 -76 c-3 -3 -12 -4 -19 -1 -8 3 -5 6 6 6 11 1 17 -2 13 -5z
m-1342 -106 c-10 -44 -11 -45 -40 -18 -33 31 -32 38 8 43 17 2 33 5 35 5 2 1
0 -13 -3 -30z m-3721 -18 c8 -8 -48 -50 -67 -50 -7 0 0 45 10 63 5 9 43 0 57
-13z m3379 -64 c96 -19 145 -44 195 -101 55 -63 76 -128 76 -240 0 -207 -106
-386 -283 -479 l-70 -37 69 -202 c38 -111 68 -202 67 -203 -1 -1 -76 -4 -166
-5 l-164 -3 -36 94 c-20 52 -50 135 -66 183 -44 130 -53 124 -132 -92 -35 -96
-64 -176 -66 -177 -8 -6 -297 -11 -293 -5 3 4 35 124 72 266 200 779 246 944
266 956 14 9 125 34 208 48 87 14 241 12 323 -3z m1882 6 c-6 -5 -31 -28 -57
-52 l-48 -43 0 27 c0 23 8 31 53 51 58 26 65 29 52 17z m-290 -319 c6 -259 1
-941 -8 -949 -1 -1 -68 -4 -148 -6 l-145 -3 4 107 5 108 -100 0 c-55 0 -121
-3 -146 -6 l-45 -6 -43 -94 -42 -94 -145 0 c-111 0 -143 3 -139 13 72 181 365
869 437 1028 34 74 68 148 76 165 13 31 17 32 96 42 46 5 140 10 209 11 l127
1 7 -317z m1055 307 c65 0 65 0 22 -186 l-39 -169 -95 3 c-53 2 -120 -1 -151
-7 -90 -19 -167 -101 -167 -179 0 -41 38 -84 112 -128 90 -52 173 -119 197
-158 15 -23 21 -50 21 -87 0 -158 -166 -301 -404 -350 -159 -33 -473 -19 -462
20 2 9 12 74 22 144 17 121 19 128 39 122 11 -3 70 -8 130 -12 171 -9 265 26
265 100 0 45 -37 91 -114 143 -143 96 -181 159 -181 299 0 82 3 97 32 155 37
75 94 134 177 184 124 75 328 120 496 110 36 -2 81 -4 100 -4z m-8472 -16 c23
-3 42 -11 42 -17 0 -7 -14 -50 -31 -97 -17 -47 -45 -125 -61 -175 -17 -49 -32
-91 -33 -93 -2 -2 -32 2 -68 9 -190 35 -404 -81 -491 -265 -58 -122 -65 -197
-25 -277 48 -96 219 -102 422 -14 44 19 82 35 83 35 18 0 -115 -287 -145 -314
-29 -26 -144 -58 -227 -63 -190 -13 -344 73 -420 232 -42 87 -60 200 -48 300
8 65 11 71 40 85 l31 15 -14 48 c-14 48 -14 49 24 130 125 268 360 439 644
466 80 8 185 6 277 -5z m526 6 c2 -3 -15 -75 -38 -160 -63 -230 -90 -339 -85
-343 7 -5 249 10 255 15 3 3 29 100 59 214 72 283 61 261 138 269 75 8 232 3
243 -7 3 -4 -17 -90 -45 -190 -28 -101 -100 -375 -158 -610 l-106 -427 -141
-3 c-78 -2 -143 -2 -145 -1 -2 1 13 83 33 183 20 99 36 187 36 195 0 13 -22
15 -133 15 l-133 0 -48 -199 -47 -200 -147 -3 c-81 -2 -148 -3 -149 -3 -13 0
261 1222 278 1240 6 5 36 13 67 16 63 8 258 6 266 -1z m2603 -6 l52 -6 -36
-97 c-19 -53 -49 -138 -65 -190 l-30 -93 -32 7 c-158 33 -307 -8 -422 -117
-99 -93 -154 -209 -154 -323 0 -72 24 -116 80 -149 29 -17 51 -21 125 -20 94
0 165 19 268 71 27 13 51 22 54 20 6 -6 -60 -166 -100 -241 -39 -73 -79 -100
-179 -120 -179 -37 -316 -4 -429 101 -289 270 -86 907 349 1100 144 64 303 81
519 57z m527 5 c3 -3 -24 -113 -59 -244 -36 -131 -65 -244 -65 -249 0 -12 152
-10 224 3 l39 6 59 230 c32 126 63 234 69 240 12 12 293 14 305 3 4 -5 -20
-108 -54 -230 -52 -189 -226 -878 -246 -973 l-7 -30 -144 0 c-80 0 -145 2
-145 5 0 11 70 355 76 372 5 18 -2 18 -132 16 l-138 -3 -9 -35 c-5 -19 -26
-106 -47 -193 -20 -87 -39 -159 -41 -162 -2 -2 -69 -5 -148 -7 l-143 -3 6 41
c21 153 252 1183 269 1200 18 18 315 30 331 13z m1482 -51 c-13 -35 -40 -113
-61 -174 l-38 -112 -198 -4 c-109 -2 -201 -6 -204 -9 -8 -9 -59 -189 -54 -193
2 -2 70 1 151 7 84 5 162 5 182 1 l34 -9 -32 -115 -32 -115 -183 -2 c-101 -1
-185 -3 -187 -6 -3 -2 -13 -34 -23 -70 -11 -36 -22 -75 -26 -88 l-7 -22 153 6
c85 4 178 10 206 13 l53 7 -39 -99 c-21 -55 -50 -124 -64 -155 l-25 -56 -77
-6 c-124 -11 -555 -8 -555 3 0 44 200 891 263 1110 l32 114 40 8 c82 16 247
25 477 27 l237 1 -23 -62z m1538 51 c2 -2 -29 -119 -69 -259 -61 -211 -118
-426 -256 -952 l-10 -38 -155 0 -156 0 5 23 c3 12 29 130 57 261 73 340 224
934 243 952 16 16 326 28 341 13z m-4514 -14 c0 -23 -127 -550 -171 -713 -127
-462 -220 -551 -575 -552 -256 0 -364 82 -364 276 0 108 60 382 173 786 l52
186 35 6 c48 8 280 8 280 0 0 -4 -30 -110 -66 -237 -72 -254 -164 -620 -164
-654 0 -39 34 -63 90 -63 63 0 113 20 136 54 35 55 123 384 200 749 l37 177
169 0 c142 0 168 -2 168 -15z"/>
<path d="M2907 11049 c29 -30 86 -90 128 -134 162 -169 248 -255 253 -250 7 7
-46 66 -225 248 -91 92 -175 172 -187 178 -11 6 2 -13 31 -42z"/>
<path d="M5520 10610 c0 -37 32 -150 42 -150 7 0 8 21 3 57 -9 75 -45 148 -45
93z"/>
<path d="M5810 10468 l0 -93 20 30 c22 34 26 91 8 130 -20 45 -28 27 -28 -67z"/>
<path d="M5231 10429 c5 -23 16 -53 24 -68 13 -23 14 -24 16 -6 3 39 -3 69
-18 92 -23 35 -32 28 -22 -18z"/>
<path d="M6174 10358 c-9 -18 -23 -38 -30 -46 -8 -7 -14 -21 -14 -30 0 -10 12
-3 35 22 19 22 35 49 35 62 0 32 -6 30 -26 -8z"/>
<path d="M4906 10201 c-6 -9 55 -30 132 -46 50 -10 39 11 -15 28 -73 23 -110
29 -117 18z"/>
<path d="M5527 10193 c-4 -3 -7 -16 -6 -27 0 -19 1 -19 10 3 10 24 8 36 -4 24z"/>
<path d="M6430 10182 c-27 -9 -38 -18 -28 -20 9 -2 34 6 55 17 46 24 35 25
-27 3z"/>
<path d="M5765 10090 c-16 -16 -26 -32 -23 -36 6 -6 58 46 58 58 0 13 -5 10
-35 -22z"/>
<path d="M5205 9929 c-37 -11 -71 -36 -62 -46 8 -8 97 37 97 49 0 4 -1 8 -2 7
-2 0 -16 -5 -33 -10z"/>
<path d="M5845 9912 c-56 -16 -58 -17 -26 -20 37 -4 118 15 127 29 8 13 -33 9
-101 -9z"/>
<path d="M6176 9830 c23 -23 80 -36 120 -26 36 9 26 16 -48 32 -89 19 -97 18
-72 -6z"/>
<path d="M6106 9630 c14 -14 108 -25 131 -15 17 7 17 8 -2 15 -30 13 -141 12
-129 0z"/>
<path d="M5558 9568 c-4 -9 -10 -45 -14 -80 -4 -35 -15 -85 -25 -113 -24 -63
-24 -72 1 -50 32 29 51 104 48 186 -2 41 -6 66 -10 57z"/>
<path d="M5851 9434 c0 -11 3 -14 6 -6 3 7 2 16 -1 19 -3 4 -6 -2 -5 -13z"/>
<path d="M6130 9293 c0 -13 29 -38 35 -31 3 3 -4 13 -15 23 -11 10 -20 13 -20
8z"/>
<path d="M5741 9083 c0 -21 4 -47 9 -58 7 -18 8 -19 15 -2 9 21 -2 84 -15 92
-6 4 -10 -10 -9 -32z"/>
<path d="M3488 8543 c7 -3 16 -2 19 1 4 3 -2 6 -13 5 -11 0 -14 -3 -6 -6z"/>
<path d="M4090 6639 c-74 -11 -212 -55 -283 -90 -202 -102 -314 -223 -506
-544 -130 -217 -297 -609 -364 -855 -9 -30 -25 -89 -37 -130 -33 -110 -57
-215 -93 -400 -29 -148 -33 -160 -37 -118 -3 26 -9 50 -13 54 -4 4 -5 -8 -2
-27 4 -31 4 -31 -7 6 l-12 40 -13 -80 c-44 -258 -54 -412 -49 -735 5 -337 16
-440 71 -652 74 -289 162 -470 304 -631 27 -30 130 -115 184 -151 51 -34 196
-95 267 -111 145 -34 379 -30 536 10 69 18 251 106 344 167 148 97 319 306
409 500 70 150 152 392 171 502 11 60 10 72 -5 107 -16 35 -24 41 -83 59 -77
24 -131 25 -199 5 -61 -18 -86 -45 -163 -173 -219 -366 -380 -574 -545 -707
-79 -63 -187 -115 -242 -115 -38 0 -48 6 -107 64 -104 103 -162 244 -235 572
-58 255 -71 373 -71 645 0 475 65 940 191 1354 100 329 274 716 417 929 76
114 180 226 209 226 26 0 47 -25 135 -160 80 -123 101 -163 124 -238 18 -59
120 -502 129 -562 4 -25 27 -126 52 -225 25 -99 47 -193 48 -210 2 -36 72 -95
111 -95 63 0 128 53 165 135 35 76 21 623 -25 985 -33 261 -126 435 -285 537
-160 103 -316 138 -491 112z m-1343 -2201 c-3 -8 -6 -5 -6 6 -1 11 2 17 5 13
3 -3 4 -12 1 -19z"/>
<path d="M11303 6320 c-74 -38 -176 -181 -332 -465 -95 -171 -153 -293 -308
-640 -37 -83 -123 -307 -221 -580 -69 -192 -189 -573 -227 -725 -44 -172 -64
-233 -69 -210 -3 14 -7 34 -9 45 -3 11 -6 -11 -7 -50 l-2 -70 -13 40 -12 40
-12 -75 c-7 -41 -17 -94 -23 -118 -14 -56 -2 -239 18 -289 51 -122 227 -243
359 -246 101 -3 127 20 129 116 2 72 46 159 188 374 148 222 289 403 418 533
120 121 132 132 271 235 104 78 177 121 187 111 3 -3 0 -31 -7 -62 -7 -30 -10
-58 -7 -61 3 -3 17 2 30 11 41 26 49 21 43 -29 -4 -24 -15 -71 -26 -103 -25
-73 -69 -220 -86 -287 -7 -27 -25 -89 -39 -138 -14 -48 -26 -95 -26 -105 0
-15 -2 -15 -11 -2 -8 12 -10 8 -7 -17 3 -18 1 -30 -3 -27 -4 2 -10 -2 -12 -8
-3 -7 -3 1 0 19 3 17 0 39 -6 50 -9 14 -9 11 -5 -17 7 -37 -9 -33 -20 5 -3 11
-3 -2 -1 -30 3 -30 1 -45 -4 -36 -6 9 -10 4 -14 -20 -3 -19 -13 -77 -22 -129
-11 -63 -15 -134 -13 -210 3 -107 5 -120 36 -183 65 -132 181 -217 307 -224
110 -7 109 -10 110 198 1 198 12 260 110 619 122 450 165 656 165 780 -1 120
-30 170 -129 217 -107 50 -212 30 -385 -77 -69 -41 -243 -169 -301 -221 -242
-212 -414 -389 -559 -572 -16 -20 -31 -36 -32 -34 -2 2 4 27 40 155 8 28 11
52 7 52 -4 0 -22 -19 -39 -42 -47 -65 -81 -102 -88 -95 -21 20 257 795 392
1095 13 29 24 55 24 58 0 4 102 247 137 324 8 19 52 121 98 225 223 515 258
613 259 732 1 68 -3 86 -20 110 -47 63 -159 89 -231 53z m-1166 -2732 c-3 -8
-6 -5 -6 6 -1 11 2 17 5 13 3 -3 4 -12 1 -19z m1350 -155 c-3 -10 -5 -2 -5 17
0 19 2 27 5 18 2 -10 2 -26 0 -35z"/>
<path d="M5855 6203 c-101 -24 -133 -55 -195 -188 -114 -245 -219 -567 -329
-1015 -60 -244 -141 -638 -141 -685 0 -14 -4 -25 -10 -25 -5 0 -10 -17 -11
-37 0 -21 -3 -32 -6 -25 -9 23 -23 12 -24 -20 l-1 -33 -11 35 c-10 34 -11 33
-28 -55 -10 -49 -20 -115 -22 -145 -3 -30 -12 -104 -21 -165 -47 -327 -43
-747 9 -921 38 -128 199 -227 367 -226 123 0 193 57 166 132 -20 52 4 146 92
360 199 480 355 746 597 1016 86 95 135 139 145 128 3 -2 3 -39 0 -81 l-5 -77
28 28 c15 15 29 25 32 22 3 -2 2 -44 -2 -92 -7 -74 -10 -85 -20 -70 -10 13
-14 14 -18 4 -3 -7 -5 5 -3 27 2 22 1 30 -1 17 -2 -12 -8 -20 -12 -17 -5 2
-11 -21 -14 -53 -4 -31 -14 -124 -23 -207 -24 -210 -25 -631 -1 -733 30 -133
103 -228 216 -281 47 -22 70 -26 146 -26 144 0 175 34 135 147 -45 126 -38
448 21 988 16 152 17 483 0 547 -16 64 -56 103 -131 128 -68 22 -168 16 -227
-13 -88 -46 -230 -178 -387 -364 -94 -110 -100 -116 -113 -98 -14 20 -50 29
-38 10 3 -5 2 -10 -4 -10 -5 0 -13 5 -16 11 -4 6 -17 -4 -32 -25 -13 -20 -21
-41 -17 -48 4 -6 3 -8 -3 -5 -10 6 -70 -71 -138 -178 -21 -33 -48 -76 -61 -95
-37 -58 -114 -191 -114 -198 0 -16 -62 -112 -69 -108 -20 13 75 598 159 976
10 47 35 159 55 250 20 91 50 221 66 290 17 69 46 188 64 265 56 233 105 452
126 559 24 126 26 282 3 314 -29 42 -127 78 -179 65z m125 -2108 c-7 -9 -15
-13 -18 -10 -3 2 1 11 8 20 7 9 15 13 18 10 3 -2 -1 -11 -8 -20z m70 1 c0 -3
-4 -8 -10 -11 -5 -3 -10 -1 -10 4 0 6 5 11 10 11 6 0 10 -2 10 -4z"/>
<path d="M4102 6088 c-70 -86 -201 -321 -278 -500 -233 -539 -343 -1102 -344
-1756 -1 -257 8 -333 71 -607 57 -249 107 -382 165 -436 l25 -24 57 30 c120
62 306 278 473 549 152 246 203 319 247 353 63 48 139 68 254 68 l98 -1 5 31
c3 16 10 77 16 135 23 225 81 587 155 970 4 20 1 17 -15 -11 -33 -60 -121
-149 -175 -177 -42 -22 -64 -27 -126 -27 -69 0 -81 3 -134 35 -101 60 -165
159 -219 340 -32 106 -70 262 -96 400 -25 131 -74 350 -101 452 -20 76 -58
188 -64 188 -2 0 -8 -6 -14 -12z m-7 -360 c24 -107 105 -501 105 -515 0 -7
-10 -15 -22 -17 -118 -26 -383 -74 -387 -71 -18 18 254 674 280 675 4 0 14
-33 24 -72z m179 -766 c49 -166 159 -307 291 -371 60 -30 81 -35 145 -35 41
-1 90 2 109 7 l34 7 -7 -42 c-34 -207 -67 -431 -77 -519 l-12 -106 -80 -12
c-207 -32 -283 -92 -434 -344 -102 -171 -169 -273 -247 -377 -89 -118 -199
-234 -217 -228 -36 11 -142 434 -170 678 -29 255 32 939 109 1230 l17 64 115
24 c221 45 355 70 382 71 24 1 29 -5 42 -47z"/>
<path d="M14135 5740 c-212 -29 -430 -204 -549 -437 -113 -223 -153 -527 -111
-842 26 -196 96 -438 185 -636 13 -29 59 -141 86 -209 13 -32 21 -62 19 -66
-3 -4 -22 -11 -42 -14 -46 -8 -167 -44 -208 -61 -16 -7 -45 -19 -62 -26 -18
-8 -33 -17 -33 -21 0 -5 -7 -8 -16 -8 -19 0 -113 -50 -158 -85 -18 -14 -36
-25 -41 -25 -4 0 4 9 19 21 31 25 33 39 5 39 -15 0 -19 -5 -15 -15 3 -8 1 -15
-4 -15 -6 0 -10 5 -10 10 0 6 -9 10 -19 10 -11 0 -23 -4 -26 -10 -3 -5 -17
-10 -31 -10 -23 0 -28 -8 -25 -40 2 -13 0 -13 -8 -1 -15 23 -104 -69 -141
-146 -47 -98 -63 -186 -57 -333 5 -133 20 -198 73 -301 82 -163 262 -325 477
-431 158 -77 384 -108 537 -74 92 21 202 78 256 132 98 97 161 305 171 559 6
175 -8 305 -62 556 -19 90 -35 169 -35 176 0 7 26 14 68 18 71 7 169 25 240
44 53 15 82 57 82 118 0 42 0 42 -42 48 -24 4 -74 2 -113 -4 -256 -40 -249
-41 -282 23 -9 17 -24 37 -34 44 -29 20 -54 88 -99 264 -65 253 -69 379 -19
628 61 308 133 484 244 596 112 114 210 139 295 76 50 -36 159 -196 189 -278
39 -102 52 -260 31 -375 -5 -30 -14 -83 -21 -119 -17 -102 -22 -252 -7 -262
19 -11 66 -10 91 3 54 28 77 78 111 247 36 174 36 178 37 328 1 352 -117 586
-376 745 -120 73 -238 128 -320 148 -62 15 -184 20 -250 11z m-305 -2418 c9
-24 21 -47 27 -50 6 -4 10 -27 10 -52 -1 -25 3 -86 7 -136 26 -280 -161 -545
-396 -562 -187 -13 -336 71 -361 206 -13 66 30 188 95 272 34 44 133 144 179
181 104 84 327 191 389 186 31 -2 36 -7 50 -45z"/>
<path d="M13595 3097 c-99 -52 -247 -194 -288 -276 -14 -30 -24 -58 -20 -63
13 -23 91 -48 146 -48 79 0 144 34 196 103 37 49 68 130 72 187 4 73 -2 140
-13 140 -7 0 -49 -19 -93 -43z"/>
<path d="M12881 4790 c-84 -20 -200 -222 -189 -331 2 -21 -1 -40 -7 -42 -18
-6 58 -67 126 -102 147 -75 183 -59 317 148 59 91 87 157 79 189 -4 14 -33 41
-70 66 -88 60 -188 88 -256 72z"/>
<path d="M9545 4609 c-116 -15 -223 -57 -338 -133 -96 -64 -218 -192 -277
-291 -13 -22 -26 -42 -29 -45 -17 -15 -111 -225 -111 -248 -1 -16 -1 -16 -11
1 -5 9 -15 17 -22 17 -8 0 -7 -3 2 -9 17 -11 17 -42 -2 -111 -11 -38 -16 -47
-16 -28 -1 17 -6 27 -13 25 -8 -1 -12 6 -11 18 2 11 5 38 8 60 4 35 3 34 -12
-15 -26 -85 -24 -309 5 -419 79 -302 301 -491 624 -531 173 -22 306 19 416
129 74 75 127 164 184 311 65 165 73 200 58 245 -11 34 -15 37 -44 32 -17 -3
-25 -3 -18 0 22 9 13 25 -12 21 -17 -4 -23 -1 -19 9 7 19 -42 17 -73 -3 -14
-10 -23 -23 -20 -31 3 -8 2 -11 -4 -8 -5 3 -34 -44 -64 -104 -69 -139 -121
-216 -186 -274 -63 -57 -93 -60 -139 -16 -79 75 -106 209 -105 509 0 246 13
331 70 470 72 178 189 330 252 330 32 0 73 -39 96 -90 6 -14 19 -34 30 -45 30
-33 76 -152 96 -247 6 -29 4 -38 -6 -38 -8 0 -14 -4 -14 -9 0 -14 125 -33 152
-22 12 5 34 21 48 36 23 25 25 34 24 118 -1 117 -26 222 -59 253 -44 41 -109
81 -165 101 -51 19 -181 45 -212 42 -7 -1 -44 -5 -83 -10z"/>
<path d="M8391 4519 c-56 -34 -94 -89 -121 -174 -7 -22 -16 -44 -21 -49 -4 -5
-44 9 -91 32 -244 121 -497 136 -668 40 -118 -66 -265 -214 -320 -321 -8 -16
-16 -24 -18 -18 -9 26 -23 9 -17 -21 4 -24 3 -29 -4 -18 -12 17 -15 15 -30
-25 l-11 -30 5 34 c4 29 3 32 -10 21 -14 -11 -14 -10 -5 14 16 42 12 65 -5 32
-10 -18 -13 -43 -10 -65 3 -20 2 -30 -1 -23 -9 19 -24 14 -24 -7 0 -11 -4 -22
-9 -25 -5 -4 -13 -25 -17 -49 -4 -23 -8 -44 -9 -47 -47 -200 -24 -411 57 -535
38 -57 152 -156 219 -190 161 -82 368 -43 511 97 33 33 150 163 202 226 15 17
31 32 36 32 4 0 10 -53 14 -117 9 -160 25 -272 43 -310 30 -65 188 -142 291
-143 62 0 68 17 75 206 10 271 65 543 203 1019 38 131 47 179 51 267 l6 107
-44 20 c-104 47 -220 56 -278 20z m-449 -356 c14 -16 36 -52 48 -80 12 -29 26
-50 31 -47 5 3 6 -3 2 -12 -4 -11 -2 -15 4 -11 6 4 13 -2 16 -13 3 -11 2 -18
-2 -15 -4 2 -3 -11 3 -30 6 -18 14 -31 18 -29 15 9 7 -11 -18 -51 -22 -33 -25
-36 -20 -13 3 14 9 34 12 45 3 10 -4 3 -16 -16 -69 -108 -415 -476 -479 -511
l-24 -12 6 96 c10 147 65 343 134 477 55 108 190 249 238 249 12 0 33 -12 47
-27z m135 -295 c-3 -7 -5 -2 -5 12 0 14 2 19 5 13 2 -7 2 -19 0 -25z"/>
<path d="M13223 4286 c-85 -124 -159 -184 -247 -200 -22 -4 -35 -11 -29 -14
20 -14 60 -88 71 -134 24 -97 6 -238 -52 -407 -14 -41 -24 -76 -22 -78 1 -2
22 14 46 34 120 106 290 210 425 258 28 10 51 19 52 20 2 1 -19 56 -47 123
-51 127 -140 392 -140 420 -1 43 -17 37 -57 -22z m10 -268 c8 -24 26 -73 40
-111 l26 -67 -69 -35 -70 -35 0 58 c0 32 -5 85 -12 117 l-11 58 33 29 c19 15
37 28 41 28 4 0 14 -19 22 -42z"/>
<path d="M5126 4305 c-3 -9 -6 -26 -5 -38 1 -14 4 -9 9 13 9 37 7 52 -4 25z"/>
<path d="M9594 4220 c-37 -65 -66 -133 -86 -209 -18 -65 -21 -106 -22 -286 -1
-115 3 -228 7 -250 8 -38 9 -39 24 -20 8 11 42 76 75 144 95 195 159 251 288
251 53 0 71 3 68 13 -3 6 -20 13 -39 15 -19 2 -75 15 -126 29 l-92 25 -38 161
-38 161 -21 -34z"/>
<path d="M6040 4166 c0 -7 8 -20 17 -27 15 -12 16 -12 10 4 -4 10 -7 23 -7 28
0 5 -4 9 -10 9 -5 0 -10 -6 -10 -14z"/>
<path d="M6075 4170 c-3 -5 -1 -10 4 -10 6 0 11 5 11 10 0 6 -2 10 -4 10 -3 0
-8 -4 -11 -10z"/>
<path d="M6451 4164 c0 -11 3 -14 6 -6 3 7 2 16 -1 19 -3 4 -6 -2 -5 -13z"/>
<path d="M6462 4120 c0 -14 2 -19 5 -12 2 6 2 18 0 25 -3 6 -5 1 -5 -13z"/>
<path d="M7134 4079 c-3 -6 -15 -9 -25 -6 -11 3 -17 1 -13 -4 9 -14 41 -10 48
6 6 17 0 20 -10 4z"/>
<path d="M7101 4024 c0 -11 3 -14 6 -6 3 7 2 16 -1 19 -3 4 -6 -2 -5 -13z"/>
<path d="M12486 3995 c-16 -9 -40 -28 -53 -43 -33 -36 -133 -245 -133 -276 0
-9 -4 -16 -10 -16 -5 0 -10 -6 -10 -14 0 -7 -10 -35 -22 -62 -12 -27 -27 -69
-34 -94 -7 -28 -13 -36 -13 -22 -1 14 -5 21 -12 16 -6 -3 -9 -15 -6 -25 4 -14
0 -19 -13 -19 -16 0 -18 6 -14 38 2 20 2 30 -2 22 -3 -8 -9 -24 -14 -35 -18
-42 -60 -312 -60 -384 1 -64 22 -157 51 -216 71 -151 334 -314 460 -286 79 18
87 64 27 160 -29 47 -33 62 -32 115 2 101 52 280 199 716 59 175 77 279 56
319 -16 28 -102 83 -165 104 -62 21 -161 22 -200 2z m-286 -585 c0 -5 -4 -10
-10 -10 -5 0 -10 5 -10 10 0 6 5 10 10 10 6 0 10 -4 10 -10z"/>
<path d="M8740 3852 c0 -18 5 -32 10 -32 6 0 8 11 4 28 -10 39 -14 40 -14 4z"/>
<path d="M12201 3564 c0 -11 3 -14 6 -6 3 7 2 16 -1 19 -3 4 -6 -2 -5 -13z"/>
<path d="M12185 3510 c-3 -5 -1 -10 4 -10 6 0 11 5 11 10 0 6 -2 10 -4 10 -3
0 -8 -4 -11 -10z"/>
<path d="M13258 3428 c5 -5 16 -8 23 -6 8 3 3 7 -10 11 -17 4 -21 3 -13 -5z"/>
<path d="M13246 3402 c-3 -5 1 -15 9 -22 16 -14 20 -3 6 19 -5 8 -11 9 -15 3z"/>
<path d="M13185 3390 c-8 -13 5 -13 25 0 13 8 13 10 -2 10 -9 0 -20 -4 -23
-10z"/>
<path d="M11994 5659 c-3 -6 8 -30 25 -54 17 -23 35 -54 40 -67 5 -14 26 -51
46 -82 20 -32 43 -73 51 -92 14 -33 16 -34 70 -34 31 0 54 3 52 8 -25 52 -43
82 -50 82 -4 0 -14 13 -22 29 -8 15 -36 53 -62 82 -25 30 -50 63 -56 74 -8 19
-66 65 -81 65 -3 0 -9 -5 -13 -11z"/>
<path d="M15720 3659 c0 -5 5 -7 10 -4 6 3 10 8 10 11 0 2 -4 4 -10 4 -5 0
-10 -5 -10 -11z"/>
<path d="M15702 3635 c0 -16 2 -22 5 -12 2 9 2 23 0 30 -3 6 -5 -1 -5 -18z"/>
<path d="M15750 3645 c0 -8 5 -15 10 -15 6 0 10 7 10 15 0 8 -4 15 -10 15 -5
0 -10 -7 -10 -15z"/>
<path d="M15730 3623 c0 -13 5 -23 10 -23 13 0 13 11 0 30 -8 12 -10 11 -10
-7z"/>
<path d="M15828 3599 c4 -4 18 -10 32 -14 17 -4 21 -3 11 3 -11 8 -11 10 0 14
8 3 0 5 -18 4 -18 -1 -29 -4 -25 -7z"/>
<path d="M15680 3590 c0 -5 5 -10 10 -10 6 0 10 5 10 10 0 6 -4 10 -10 10 -5
0 -10 -4 -10 -10z"/>
<path d="M15980 3550 c0 -9 39 -25 45 -18 2 2 -7 8 -21 15 -13 6 -24 7 -24 3z"/>
<path d="M16050 3522 c0 -4 12 -8 28 -9 23 -1 24 -1 7 7 -26 11 -35 12 -35 2z"/>
<path d="M15990 3510 c8 -5 22 -9 30 -9 10 0 8 3 -5 9 -27 12 -43 12 -25 0z"/>
<path d="M16140 3480 c0 -5 5 -10 10 -10 6 0 10 5 10 10 0 6 -4 10 -10 10 -5
0 -10 -4 -10 -10z"/>
<path d="M16340 3360 c0 -5 4 -10 9 -10 6 0 13 5 16 10 3 6 -1 10 -9 10 -9 0
-16 -4 -16 -10z"/>
<path d="M15616 3345 c-3 -9 -5 -33 -5 -53 2 -33 2 -32 9 13 8 53 6 66 -4 40z"/>
<path d="M16380 3349 c0 -5 11 -9 25 -9 14 0 25 2 25 4 0 2 -11 6 -25 8 -14 3
-25 1 -25 -3z"/>
<path d="M15641 3274 c0 -11 3 -14 6 -6 3 7 2 16 -1 19 -3 4 -6 -2 -5 -13z"/>
<path d="M16761 3225 c9 -8 79 -35 79 -30 0 2 -16 12 -36 20 -37 15 -51 19
-43 10z"/>
<path d="M16740 3192 c0 -4 18 -8 41 -8 26 -1 36 2 28 7 -17 11 -69 12 -69 1z"/>
<path d="M15562 3155 c0 -16 2 -22 5 -12 2 9 2 23 0 30 -3 6 -5 -1 -5 -18z"/>
<path d="M16950 3130 c-13 -9 -13 -10 0 -10 13 0 13 -1 0 -10 -11 -8 -7 -9 15
-3 36 8 54 8 80 -1 12 -5 11 -2 -5 8 -14 8 -38 12 -55 10 -25 -4 -26 -3 -10 5
14 7 15 10 5 10 -8 0 -22 -4 -30 -9z"/>
<path d="M15550 3074 c5 -21 6 -52 4 -68 l-6 -31 14 25 c11 19 12 33 3 62 -14
50 -25 59 -15 12z"/>
<path d="M17138 3058 c6 -6 18 -8 28 -6 14 3 12 5 -9 10 -19 3 -25 2 -19 -4z"/>
<path d="M17100 3048 c0 -13 7 -18 28 -17 21 1 22 2 7 6 -11 3 -23 10 -27 17
-5 7 -8 5 -8 -6z"/>
<path d="M17035 3004 c9 -9 19 -13 23 -10 3 4 0 11 -8 16 -24 15 -33 11 -15
-6z"/>
<path d="M17083 3013 c12 -3 16 -10 13 -20 -6 -13 -4 -14 9 -3 13 11 13 15 3
21 -7 5 -20 8 -28 8 -10 -1 -9 -3 3 -6z"/>
<path d="M17021 2974 c0 -11 3 -14 6 -6 3 7 2 16 -1 19 -3 4 -6 -2 -5 -13z"/>
<path d="M17056 2971 c-4 -7 -5 -15 -2 -18 9 -9 19 4 14 18 -4 11 -6 11 -12 0z"/>
<path d="M17022 2925 c-7 -8 -9 -15 -4 -15 5 0 15 7 22 15 16 19 -1 19 -18 0z"/>
<path d="M16970 2900 c0 -5 5 -10 10 -10 6 0 10 5 10 10 0 6 -4 10 -10 10 -5
0 -10 -4 -10 -10z"/>
<path d="M16941 2884 c0 -11 3 -14 6 -6 3 7 2 16 -1 19 -3 4 -6 -2 -5 -13z"/>
<path d="M15481 2853 c0 -21 -2 -45 -4 -53 -1 -8 3 -15 8 -15 6 0 9 22 8 49
-2 59 -10 72 -12 19z"/>
<path d="M16919 2848 c17 -22 27 -23 35 -2 5 13 4 14 -7 6 -10 -9 -17 -8 -27
1 -12 10 -12 9 -1 -5z"/>
<path d="M16880 2819 c0 -5 5 -7 10 -4 6 3 10 8 10 11 0 2 -4 4 -10 4 -5 0
-10 -5 -10 -11z"/>
<path d="M16796 2764 c-9 -8 -16 -20 -16 -25 0 -6 8 -2 17 8 10 10 22 21 28
25 6 5 6 8 -2 8 -6 0 -19 -7 -27 -16z"/>
<path d="M15450 2740 c0 -19 3 -21 12 -12 9 9 9 15 0 24 -9 9 -12 7 -12 -12z"/>
<path d="M15481 2714 c0 -11 3 -14 6 -6 3 7 2 16 -1 19 -3 4 -6 -2 -5 -13z"/>
<path d="M16745 2680 c-10 -11 -15 -20 -11 -20 11 0 39 30 34 36 -3 2 -13 -5
-23 -16z"/>
<path d="M15412 2620 c0 -14 2 -19 5 -12 2 6 2 18 0 25 -3 6 -5 1 -5 -13z"/>
<path d="M15412 2540 c0 -14 2 -19 5 -12 2 6 2 18 0 25 -3 6 -5 1 -5 -13z"/>
<path d="M16540 2515 c0 -14 2 -25 4 -25 2 0 6 11 8 25 3 14 1 25 -3 25 -5 0
-9 -11 -9 -25z"/>
<path d="M16580 2530 c-8 -5 -11 -12 -8 -16 4 -3 14 1 23 10 18 17 9 21 -15 6z"/>
<path d="M15402 2485 c0 -16 2 -22 5 -12 2 9 2 23 0 30 -3 6 -5 -1 -5 -18z"/>
<path d="M15377 2447 c-11 -29 -9 -43 4 -30 6 6 9 19 7 29 -3 18 -4 18 -11 1z"/>
<path d="M16482 2446 c7 -8 15 -12 17 -11 5 6 -10 25 -20 25 -5 0 -4 -6 3 -14z"/>
<path d="M15412 2425 c0 -16 2 -22 5 -12 2 9 2 23 0 30 -3 6 -5 -1 -5 -18z"/>
<path d="M15321 2264 c0 -11 3 -14 6 -6 3 7 2 16 -1 19 -3 4 -6 -2 -5 -13z"/>
<path d="M15307 2233 c-4 -3 -7 -11 -7 -17 0 -6 5 -5 12 2 6 6 9 14 7 17 -3 3
-9 2 -12 -2z"/>
<path d="M16188 2213 c7 -3 16 -2 19 1 4 3 -2 6 -13 5 -11 0 -14 -3 -6 -6z"/>
<path d="M16224 2206 c-10 -8 -17 -17 -14 -19 3 -3 16 3 29 14 27 22 15 26
-15 5z"/>
<path d="M16175 2181 c-3 -5 -1 -12 5 -16 5 -3 10 1 10 9 0 18 -6 21 -15 7z"/>
<path d="M16141 2164 c0 -11 3 -14 6 -6 3 7 2 16 -1 19 -3 4 -6 -2 -5 -13z"/>
<path d="M15300 2150 c0 -5 5 -10 11 -10 5 0 7 5 4 10 -3 6 -8 10 -11 10 -2 0
-4 -4 -4 -10z"/>
<path d="M16151 2129 c-13 -11 -22 -21 -20 -23 2 -3 15 4 28 15 13 11 22 21
20 23 -2 3 -15 -4 -28 -15z"/>
<path d="M16086 2106 c3 -9 11 -16 16 -16 13 0 5 23 -10 28 -7 2 -10 -2 -6
-12z"/>
<path d="M16075 2060 c-3 -5 -12 -7 -20 -3 -8 3 -15 3 -15 0 0 -13 28 -13 45
-1 10 8 14 14 8 14 -7 0 -14 -4 -18 -10z"/>
<path d="M15985 2049 c-11 -17 -2 -18 19 -3 17 12 17 14 4 14 -9 0 -20 -5 -23
-11z"/>
<path d="M15244 2005 c-8 -25 -8 -35 0 -35 6 0 12 16 13 35 4 44 1 44 -13 0z"/>
<path d="M16025 2030 c-3 -5 1 -10 10 -10 9 0 13 5 10 10 -3 6 -8 10 -10 10
-2 0 -7 -4 -10 -10z"/>
<path d="M16002 1990 c0 -14 2 -19 5 -12 2 6 2 18 0 25 -3 6 -5 1 -5 -13z"/>
<path d="M15252 1920 c0 -14 2 -19 5 -12 2 6 2 18 0 25 -3 6 -5 1 -5 -13z"/>
<path d="M15220 1916 c0 -8 5 -18 10 -21 6 -3 10 -23 11 -43 0 -20 3 -31 6
-24 8 19 -7 102 -18 102 -5 0 -9 -6 -9 -14z"/>
<path d="M15211 1854 c0 -11 3 -14 6 -6 3 7 2 16 -1 19 -3 4 -6 -2 -5 -13z"/>
<path d="M15982 1795 c0 -16 2 -22 5 -12 2 9 2 23 0 30 -3 6 -5 -1 -5 -18z"/>
<path d="M16003 1735 c0 -27 2 -38 4 -22 2 15 2 37 0 50 -2 12 -4 0 -4 -28z"/>
<path d="M16023 1705 c0 -27 2 -38 4 -22 2 15 2 37 0 50 -2 12 -4 0 -4 -28z"/>
<path d="M15982 1680 c0 -14 2 -19 5 -12 2 6 2 18 0 25 -3 6 -5 1 -5 -13z"/>
<path d="M15162 1660 c0 -14 2 -19 5 -12 2 6 2 18 0 25 -3 6 -5 1 -5 -13z"/>
<path d="M15141 1645 c-1 -30 10 -65 21 -65 5 0 6 5 2 12 -4 6 -11 25 -15 42
-4 19 -7 23 -8 11z"/>
<path d="M16022 1610 c0 -19 2 -27 5 -17 2 9 2 25 0 35 -3 9 -5 1 -5 -18z"/>
<path d="M15171 1614 c0 -11 3 -14 6 -6 3 7 2 16 -1 19 -3 4 -6 -2 -5 -13z"/>
<path d="M15991 1594 c0 -11 3 -14 6 -6 3 7 2 16 -1 19 -3 4 -6 -2 -5 -13z"/>
<path d="M13978 1503 c7 -3 16 -2 19 1 4 3 -2 6 -13 5 -11 0 -14 -3 -6 -6z"/>
<path d="M13966 1481 c-4 -7 -5 -15 -2 -18 9 -9 19 4 14 18 -4 11 -6 11 -12 0z"/>
<path d="M13928 1474 c-4 -3 0 -13 8 -21 19 -20 28 -12 11 11 -7 9 -16 14 -19
10z"/>
<path d="M14088 1463 c7 -3 16 -2 19 1 4 3 -2 6 -13 5 -11 0 -14 -3 -6 -6z"/>
<path d="M14130 1460 c-8 -5 -10 -10 -5 -10 6 0 17 5 25 10 8 5 11 10 5 10 -5
0 -17 -5 -25 -10z"/>
<path d="M14216 1446 c3 -9 13 -16 22 -16 8 0 13 1 11 3 -2 1 -12 9 -22 16
-15 12 -17 12 -11 -3z"/>
<path d="M13870 1403 c-21 -40 -36 -113 -22 -113 11 0 31 36 32 55 0 16 -2 17
-10 5 -5 -8 -13 -11 -17 -6 -4 4 -1 13 7 19 14 11 43 77 37 83 -1 2 -14 -18
-27 -43z"/>
<path d="M14380 1404 c0 -8 5 -12 10 -9 6 4 8 11 5 16 -9 14 -15 11 -15 -7z"/>
<path d="M15070 1394 c0 -34 17 -38 22 -6 3 19 0 29 -9 29 -7 0 -13 -11 -13
-23z"/>
<path d="M13891 1364 c0 -11 3 -14 6 -6 3 7 2 16 -1 19 -3 4 -6 -2 -5 -13z"/>
<path d="M14455 1360 c-7 -11 22 -26 32 -16 4 3 -2 6 -13 7 -18 0 -18 1 1 9
16 7 17 9 3 9 -9 1 -20 -4 -23 -9z"/>
<path d="M14513 1353 c9 -2 25 -2 35 0 9 3 1 5 -18 5 -19 0 -27 -2 -17 -5z"/>
<path d="M15061 1344 c0 -11 3 -14 6 -6 3 7 2 16 -1 19 -3 4 -6 -2 -5 -13z"/>
<path d="M14720 1310 c0 -5 10 -10 23 -10 18 0 19 2 7 10 -19 13 -30 13 -30 0z"/>
<path d="M15082 1285 c0 -16 2 -22 5 -12 2 9 2 23 0 30 -3 6 -5 -1 -5 -18z"/>
<path d="M14700 1280 c0 -6 7 -10 15 -10 8 0 15 2 15 4 0 2 -7 6 -15 10 -8 3
-15 1 -15 -4z"/>
<path d="M15051 1274 c0 -11 3 -14 6 -6 3 7 2 16 -1 19 -3 4 -6 -2 -5 -13z"/>
<path d="M14750 1270 c-12 -8 -11 -10 8 -10 12 0 22 5 22 10 0 13 -11 13 -30
0z"/>
<path d="M14866 1271 c-3 -4 6 -6 19 -3 14 2 25 6 25 8 0 8 -39 4 -44 -5z"/>
<path d="M14928 1263 c7 -3 16 -2 19 1 4 3 -2 6 -13 5 -11 0 -14 -3 -6 -6z"/>
<path d="M13796 1215 c-9 -26 -7 -32 5 -12 6 10 9 21 6 23 -2 3 -7 -2 -11 -11z"/>
<path d="M16072 1200 c0 -14 2 -19 5 -12 2 6 2 18 0 25 -3 6 -5 1 -5 -13z"/>
<path d="M13807 1183 c-2 -5 -8 -21 -12 -38 -7 -27 -8 -28 -15 -10 -6 13 -9
15 -9 5 0 -8 4 -22 9 -30 8 -12 11 -13 19 -1 6 9 10 9 12 2 2 -6 4 9 4 34 0
46 -1 50 -8 38z"/>
<path d="M16066 1105 c-3 -9 -6 -24 -5 -33 0 -9 5 -4 10 12 9 32 6 48 -5 21z"/>
<path d="M13863 1093 c9 -2 23 -2 30 0 6 3 -1 5 -18 5 -16 0 -22 -2 -12 -5z"/>
<path d="M13940 1077 c19 -7 37 -12 39 -10 9 6 -6 13 -40 18 l-34 6 35 -14z"/>
<path d="M13898 1063 c7 -3 16 -2 19 1 4 3 -2 6 -13 5 -11 0 -14 -3 -6 -6z"/>
<path d="M16070 1038 c0 -10 4 -18 9 -18 5 0 12 -10 14 -22 4 -21 4 -21 6 -2
0 11 -6 29 -14 40 -13 17 -14 17 -15 2z"/>
<path d="M14087 1004 c15 -6 39 -14 53 -18 20 -5 19 -3 -5 8 l-30 14 30 4 c17
3 6 4 -23 4 -50 -1 -52 -2 -25 -12z"/>
<path d="M14178 1003 c6 -2 18 -2 25 0 6 3 1 5 -13 5 -14 0 -19 -2 -12 -5z"/>
<path d="M14178 973 c6 -2 18 -2 25 0 6 3 1 5 -13 5 -14 0 -19 -2 -12 -5z"/>
<path d="M16072 940 c0 -19 3 -55 7 -80 8 -42 9 -42 9 -10 0 19 -3 55 -7 80
-8 42 -9 42 -9 10z"/>
<path d="M14338 933 c7 -3 16 -2 19 1 4 3 -2 6 -13 5 -11 0 -14 -3 -6 -6z"/>
<path d="M14406 925 c-15 -8 -40 -13 -55 -10 -21 4 -22 4 -6 -3 11 -5 38 -12
60 -15 22 -3 32 -3 23 -1 -26 8 -22 19 10 31 15 6 20 11 12 12 -8 0 -28 -6
-44 -14z"/>
<path d="M16102 885 c0 -16 2 -22 5 -12 2 9 2 23 0 30 -3 6 -5 -1 -5 -18z"/>
<path d="M14578 853 c6 -2 18 -2 25 0 6 3 1 5 -13 5 -14 0 -19 -2 -12 -5z"/>
<path d="M14603 824 c22 -10 42 -13 47 -8 5 5 0 10 -13 10 -12 1 -33 5 -47 8
-14 4 -8 -1 13 -10z"/>
<path d="M16103 780 c0 -25 2 -35 4 -22 2 12 2 32 0 45 -2 12 -4 2 -4 -23z"/>
<path d="M14748 773 c6 -2 18 -2 25 0 6 3 1 5 -13 5 -14 0 -19 -2 -12 -5z"/>
<path d="M14828 768 c5 -5 16 -8 23 -6 8 3 3 7 -10 11 -17 4 -21 3 -13 -5z"/>
<path d="M14878 763 c6 -2 18 -2 25 0 6 3 1 5 -13 5 -14 0 -19 -2 -12 -5z"/>
<path d="M16072 730 c0 -19 2 -27 5 -17 2 9 2 25 0 35 -3 9 -5 1 -5 -18z"/>
<path d="M14845 740 c27 -12 43 -12 25 0 -8 5 -22 9 -30 9 -10 0 -8 -3 5 -9z"/>
<path d="M14990 690 c8 -5 22 -9 30 -9 10 0 8 3 -5 9 -27 12 -43 12 -25 0z"/>
<path d="M15095 686 c22 -7 45 -10 50 -7 10 6 -35 18 -70 19 -11 0 -2 -5 20
-12z"/>
<path d="M15115 653 c11 -3 24 -9 30 -14 5 -5 14 -9 20 -9 5 0 1 7 -9 15 -11
8 -29 14 -40 14 -20 -1 -21 -1 -1 -6z"/>
<path d="M15293 609 c-18 -5 -33 -12 -33 -14 0 -2 15 -2 33 0 26 5 29 4 12 -5
-17 -9 -16 -9 8 -5 18 4 26 2 22 -4 -4 -7 0 -8 11 -4 14 5 13 8 -6 18 -17 9
-19 14 -9 18 22 9 -3 6 -38 -4z"/>
<path d="M15368 613 c7 -3 16 -2 19 1 4 3 -2 6 -13 5 -11 0 -14 -3 -6 -6z"/>
<path d="M15405 600 c3 -5 8 -10 11 -10 2 0 4 5 4 10 0 6 -5 10 -11 10 -5 0
-7 -4 -4 -10z"/>
<path d="M15385 570 c3 -5 8 -10 11 -10 2 0 4 5 4 10 0 6 -5 10 -11 10 -5 0
-7 -4 -4 -10z"/>
<path d="M15465 530 c3 -5 11 -10 16 -10 6 0 7 5 4 10 -3 6 -11 10 -16 10 -6
0 -7 -4 -4 -10z"/>
<path d="M15508 533 c6 -2 18 -2 25 0 6 3 1 5 -13 5 -14 0 -19 -2 -12 -5z"/>
<path d="M15558 523 c7 -3 16 -2 19 1 4 3 -2 6 -13 5 -11 0 -14 -3 -6 -6z"/>
<path d="M15708 453 c7 -3 16 -2 19 1 4 3 -2 6 -13 5 -11 0 -14 -3 -6 -6z"/>
<path d="M15780 437 c19 -7 37 -12 39 -10 9 6 -6 13 -40 18 l-34 6 35 -14z"/>
<path d="M15738 423 c7 -3 16 -2 19 1 4 3 -2 6 -13 5 -11 0 -14 -3 -6 -6z"/>
<path d="M15936 371 c-15 -6 -11 -9 20 -19 21 -6 40 -9 42 -7 2 2 -9 7 -24 12
l-29 7 30 7 c27 6 27 7 5 7 -14 0 -33 -3 -44 -7z"/>
<path d="M16018 363 c7 -3 16 -2 19 1 4 3 -2 6 -13 5 -11 0 -14 -3 -6 -6z"/>
<path d="M16151 320 c0 -8 4 -22 9 -30 12 -18 12 -2 0 25 -6 13 -9 15 -9 5z"/>
<path d="M10510 1349 c-13 -6 -25 -11 -26 -12 -8 -7 -85 -319 -81 -323 10 -10
122 -5 152 6 54 20 93 59 124 121 44 89 41 168 -8 206 -19 15 -126 16 -161 2z"/>
<path d="M11987 1118 c-59 -119 -107 -219 -107 -222 0 -3 55 -6 121 -6 l121 0
-7 196 c-4 108 -10 208 -14 222 -7 24 -21 -1 -114 -190z"/>
<path d="M17142 16128 c-38 -35 -97 -85 -131 -113 -35 -27 -93 -75 -130 -106
-116 -98 -371 -283 -554 -404 -461 -302 -684 -464 -1112 -808 -162 -131 -169
-136 -385 -320 -202 -171 -634 -516 -717 -572 -105 -72 -312 -229 -313 -237
-1 -37 194 81 447 268 119 88 771 607 873 694 94 81 846 647 924 696 25 16 74
48 109 71 34 23 101 68 150 100 150 99 448 312 506 361 31 27 69 56 84 66 68
42 200 176 292 295 73 94 54 98 -43 9z"/>
<path d="M5680 15871 c0 -14 331 -346 600 -601 263 -251 314 -297 416 -380 43
-36 90 -76 104 -90 27 -28 172 -142 358 -283 65 -48 126 -96 137 -105 42 -35
152 -119 197 -150 25 -17 52 -38 60 -45 7 -7 87 -73 178 -147 186 -150 289
-240 370 -321 30 -30 116 -113 190 -183 74 -71 139 -135 143 -142 6 -11 -16
-13 -120 -12 -90 1 -162 -5 -243 -20 -63 -11 -144 -24 -180 -28 -36 -3 -71
-11 -77 -17 -18 -13 -16 -54 2 -61 8 -3 95 -10 193 -16 216 -12 250 -16 286
-35 16 -9 31 -13 34 -10 12 12 -38 48 -99 69 -35 13 -65 28 -66 33 -2 6 13 13
34 17 21 3 61 10 88 15 81 16 191 13 209 -4 8 -8 19 -15 25 -15 20 0 11 31
-26 88 -21 32 -42 65 -48 73 -76 120 -293 340 -542 552 -14 12 -35 32 -47 43
-12 12 -84 69 -161 127 -77 59 -205 156 -285 216 -80 61 -163 124 -185 141
-367 277 -573 449 -881 734 -442 408 -513 473 -569 515 -53 41 -95 59 -95 42z"/>
<path d="M5560 15808 c0 -26 30 -186 55 -293 14 -60 33 -148 41 -195 9 -47 22
-105 29 -130 7 -25 23 -90 35 -145 50 -232 168 -593 196 -598 14 -3 4 71 -23
163 -43 146 -81 288 -128 480 -25 102 -51 208 -60 235 -8 28 -17 61 -19 75
-17 84 -70 295 -87 347 -19 59 -39 90 -39 61z"/>
<path d="M15995 14283 c-83 -85 -148 -156 -146 -159 2 -2 -1 -4 -8 -4 -7 0
-97 -84 -200 -187 -104 -104 -224 -213 -267 -245 -83 -59 -252 -155 -291 -164
-26 -7 -41 -24 -21 -24 22 0 154 66 231 116 115 75 320 248 472 399 175 173
392 411 384 419 -2 2 -72 -66 -154 -151z"/>
<path d="M14011 13484 c-160 -13 -187 -20 -178 -49 7 -20 117 -27 347 -21 310
7 461 -4 535 -38 30 -14 58 -32 61 -41 9 -22 21 -19 27 7 13 48 -63 96 -211
134 -82 21 -116 24 -256 23 -88 -1 -235 -7 -325 -15z"/>
<path d="M14265 13279 c-8 -12 82 -35 210 -54 307 -46 417 -104 280 -149 -51
-16 -86 -19 -231 -17 -172 2 -224 -6 -224 -33 0 -22 17 -24 115 -19 105 6 333
-19 397 -43 125 -47 148 -58 145 -68 -2 -6 -22 -12 -45 -14 -23 -2 -42 -7 -42
-13 0 -13 124 -11 138 3 20 20 14 47 -15 65 -16 10 -31 23 -36 29 -9 16 -77
40 -149 54 -64 13 -74 25 -28 35 42 9 80 42 80 70 0 56 -79 89 -310 128 -163
29 -278 39 -285 26z"/>
<path d="M8349 13212 c-20 -15 -71 -57 -114 -94 -43 -38 -82 -68 -86 -68 -5 0
-15 -13 -23 -28 -9 -17 -38 -41 -73 -59 -57 -31 -273 -116 -325 -128 -31 -8
-53 -30 -43 -44 3 -6 -4 -24 -16 -41 -13 -16 -20 -33 -16 -36 15 -16 82 -3
159 31 45 19 84 35 86 35 2 0 2 -11 0 -25 -7 -37 8 -31 71 28 38 35 99 73 184
116 69 35 134 72 143 82 23 26 11 49 -26 49 -17 0 -30 5 -30 12 0 7 41 51 90
98 50 47 90 88 90 93 0 15 -36 4 -71 -21z"/>
<path d="M14120 13010 c0 -12 58 -66 127 -118 84 -63 266 -214 329 -271 132
-122 148 -136 165 -146 9 -5 33 -23 53 -39 80 -63 50 9 -43 106 -39 40 -71 76
-71 79 0 4 50 -6 111 -22 209 -55 309 -30 264 66 -20 40 -67 79 -160 129 -38
22 -77 44 -85 51 -8 7 -35 18 -60 25 -25 6 -86 25 -137 41 -96 32 -148 35
-148 9 0 -9 27 -22 80 -38 110 -32 252 -89 297 -118 21 -13 40 -24 44 -24 13
0 112 -75 124 -94 20 -32 -12 -48 -80 -41 -127 15 -322 81 -341 116 -5 11 -19
19 -30 19 -30 0 -49 12 -214 135 -172 129 -225 160 -225 135z"/>
<path d="M8915 11983 c-165 -14 -357 -52 -504 -98 -178 -57 -360 -154 -403
-214 -30 -42 -40 -81 -22 -88 7 -2 78 30 158 72 158 82 225 110 237 98 4 -5
-12 -48 -36 -98 -44 -93 -96 -242 -114 -330 -20 -98 -23 -131 -22 -236 l0
-106 -64 -28 c-66 -28 -70 -31 -59 -58 5 -13 13 -13 62 4 362 125 845 199
1196 185 339 -13 634 -82 920 -214 60 -28 115 -48 123 -45 7 3 21 19 29 35 20
38 16 42 -106 124 -230 153 -507 224 -869 224 -135 0 -322 -12 -378 -25 -23
-5 -23 -4 -23 95 l0 100 -105 0 c-57 0 -128 5 -157 11 -70 15 -144 50 -126 59
7 4 86 25 176 46 l163 39 -5 30 c-11 60 -19 233 -12 267 l6 35 78 6 c186 13
497 -28 737 -97 220 -63 354 -120 717 -309 46 -24 62 -27 84 -20 63 21 54 74
-21 124 -181 119 -520 260 -794 329 -296 74 -615 105 -866 83z"/>
<path d="M12495 11900 c-167 -19 -361 -60 -525 -112 -184 -58 -454 -206 -562
-308 -33 -32 -39 -44 -36 -72 4 -47 25 -46 118 1 43 23 81 41 83 41 3 0 -6
-27 -20 -60 -36 -91 -63 -206 -63 -274 0 -59 -1 -61 -52 -113 -31 -31 -46 -53
-37 -53 8 0 71 21 140 46 212 79 447 114 764 114 530 0 1033 -134 1635 -435
96 -48 140 -64 188 -70 97 -11 109 10 50 87 -22 29 -66 56 -186 117 -291 147
-538 234 -883 310 -181 41 -404 79 -619 107 -68 8 -128 18 -132 20 -4 2 -10
25 -14 49 -3 25 -10 48 -15 51 -5 3 -53 0 -106 -6 -116 -13 -207 -3 -280 31
l-48 23 95 7 c100 7 206 29 279 56 l43 17 -6 55 c-4 31 -9 97 -12 148 l-6 91
68 8 c108 13 556 10 679 -4 401 -48 702 -136 1050 -307 151 -74 207 -95 258
-95 23 0 27 4 27 28 0 118 -414 329 -845 432 -234 56 -374 72 -675 75 -151 2
-311 0 -355 -5z"/>
<path d="M15292 11816 c10 -7 56 -23 103 -35 99 -27 100 -36 4 -71 -33 -12
-75 -32 -94 -44 -18 -13 -47 -29 -64 -36 -40 -16 -39 -29 6 -62 31 -24 33 -28
15 -28 -29 0 -28 -16 2 -35 17 -11 42 -15 88 -13 60 3 63 4 66 29 3 30 -36 69
-69 69 -11 0 -19 4 -19 10 0 16 41 36 140 69 118 39 160 63 160 93 -1 55 -41
67 -230 67 -105 0 -122 -2 -108 -13z"/>
<path d="M10795 10763 c-141 -30 -284 -105 -446 -233 -86 -69 -112 -100 -84
-100 8 0 67 32 131 71 223 134 412 212 579 239 79 13 96 20 69 31 -32 13 -175
8 -249 -8z"/>
<path d="M11195 10720 c-3 -5 6 -12 21 -16 74 -19 373 -187 429 -242 17 -16
40 -32 53 -36 l23 -8 -25 50 c-14 27 -44 66 -68 86 -61 52 -192 127 -268 153
-67 23 -154 30 -165 13z"/>
<path d="M10808 10339 c-281 -20 -468 -93 -631 -248 -58 -55 -77 -88 -77 -133
0 -43 15 -65 119 -171 100 -102 130 -121 177 -113 31 6 84 55 84 78 0 6 -12
37 -27 70 -20 46 -24 65 -17 85 21 61 117 90 184 55 l35 -18 -3 -79 c-2 -75
-1 -82 25 -111 40 -44 106 -80 198 -106 67 -19 104 -23 225 -22 176 0 228 16
308 94 27 27 48 50 46 53 -2 2 -6 17 -8 33 -2 16 -7 38 -12 49 -7 18 -6 19 11
5 19 -14 19 -14 4 10 -23 35 -9 64 40 84 63 24 117 21 147 -10 18 -17 24 -32
21 -47 -3 -12 -9 -61 -12 -109 -7 -85 -7 -86 19 -103 30 -20 105 -17 132 6 19
16 98 136 136 208 48 91 31 200 -39 248 -58 40 -200 111 -263 131 -186 60
-508 84 -822 61z"/>
<path d="M11565 9950 c3 -5 11 -10 16 -10 6 0 7 5 4 10 -3 6 -11 10 -16 10 -6
0 -7 -4 -4 -10z"/>
<path d="M11508 9923 c7 -3 16 -2 19 1 4 3 -2 6 -13 5 -11 0 -14 -3 -6 -6z"/>
<path d="M11469 9862 c5 -34 6 -35 9 -8 2 16 0 32 -5 37 -5 5 -7 -7 -4 -29z"/>
<path d="M11601 9884 c0 -11 3 -14 6 -6 3 7 2 16 -1 19 -3 4 -6 -2 -5 -13z"/>
<path d="M11538 9863 c7 -3 16 -2 19 1 4 3 -2 6 -13 5 -11 0 -14 -3 -6 -6z"/>
<path d="M11495 9850 c-3 -6 1 -7 9 -4 18 7 21 14 7 14 -6 0 -13 -4 -16 -10z"/>
<path d="M7256 9508 c-50 -179 -31 -373 51 -530 39 -75 65 -103 88 -94 14 5
14 8 2 28 -8 13 -22 55 -32 93 -9 39 -21 79 -25 90 -8 21 -28 158 -36 255 -9
112 -36 201 -48 158z"/>
<path d="M8912 5620 c0 -14 2 -19 5 -12 2 6 2 18 0 25 -3 6 -5 1 -5 -13z"/>
<path d="M8902 5560 c0 -14 2 -19 5 -12 2 6 2 18 0 25 -3 6 -5 1 -5 -13z"/>
</g>
</svg>
